<svg xmlns="http://www.w3.org/2000/svg" viewBox="0 0 2646.67 2924.72"><defs><style>.cls-1{fill:#c5c5ff;}.cls-2{fill:#fff;}.cls-3{fill:#ffb531;}.cls-4{opacity:0.3;}.cls-5{fill:#000072;}.cls-6{fill:#ff9fd4;}.cls-7{opacity:0.6;}.cls-8{fill:#f962bb;}.cls-9{fill:#ef4364;}.cls-10{opacity:0.2;}.cls-11{opacity:0.55;}.cls-12{fill:#008cff;}.cls-13{opacity:0.7;}.cls-14{opacity:0.4;}.cls-15{fill:#ff0068;}.cls-16{fill:#ffce00;}</style></defs><title>Asset 1</title><g id="Layer_2" data-name="Layer 2"><g id="Layer_1-2" data-name="Layer 1"><circle class="cls-1" cx="1323.33" cy="1380.64" r="1323.33"/><path class="cls-2" d="M2482.33,1616.69a55,55,0,0,1-100.7-44.25c28-63.8,25.3-139.6-4.7-202.9a236.31,236.31,0,0,0-32.4-50.75c-26-31.1-82.65-80.1-169.3-59.15-140.45,33.9-141.9,155.15-75.65,479.55,22.55,110.45,7.7,196.5-44.1,255.85-44.7,51.15-105.45,67.6-145.65,72.75-23.85,3-40.45,2.05-42.2,1.9a55,55,0,0,1,6.95-109.75c2,.1,64,2.3,98.5-37.8,14.9-17.4,22.4-40.3,25.2-64.85,3.7-32.1-.55-67-6.5-96.1-29.5-144.4-53-272.3-41.7-375.2,13.8-126.2,80.9-204.65,199.35-233.3,105.5-25.5,207.35,9.35,279.45,95.5q10.2,12.22,19.25,25.3C2516.38,1372.79,2530.58,1506.84,2482.33,1616.69Z"/><path class="cls-3" d="M2482.33,1616.69a55,55,0,0,1-100.7-44.25c28-63.8,25.3-139.6-4.7-202.9,34.35-24.1,63.85-55.9,71.2-96C2516.38,1372.79,2530.58,1506.84,2482.33,1616.69Z"/><g class="cls-4"><path class="cls-5" d="M2387.88,1627.39a54.81,54.81,0,0,1-6.25-55c28-63.8,25.3-139.6-4.7-202.9a236.31,236.31,0,0,0-32.4-50.75c-26-31.1-82.65-80.1-169.3-59.15-140.45,33.9-141.9,155.15-75.65,479.55,22.55,110.45,7.7,196.5-44.1,255.85-44.7,51.15-105.45,67.6-145.65,72.75-23.85,3-40.45,2.05-42.2,1.9a55,55,0,0,1,6.95-109.75c2,.1,64,2.3,98.5-37.8,14.9-17.4,22.4-40.3,25.2-64.85a70.81,70.81,0,0,1,15.21,3.84c23.63,9,48.93-8.6,48-33.86-.55-15.53-2.66-34.82-7.15-58.78-21.4-114.65-154.05-521.1,135-555C2442.28,1183.84,2530.58,1522.59,2387.88,1627.39Z"/></g><path class="cls-5" d="M1876.78,2090c-6,0-9.69-.24-10.53-.3a75,75,0,0,1,9.49-149.69c.25,0,54.06,1.82,82.17-30.87,22.75-26.47,27.83-77.57,14.29-143.88-29.83-146.09-53.58-275.62-42-381.4,14.82-135.45,87-219.75,214.51-250.55,113.16-27.34,222.32,9.87,299.52,102.1,89.23,106.61,111.91,263.08,56.42,389.36a75,75,0,1,1-137.32-60.35c33.08-75.29,19.37-168.82-34.13-232.74-23-27.52-73.07-71-149.27-52.56-116.51,28.14-129,121.93-60.78,456.14,23.86,116.85,7.51,208.69-48.63,273-48.18,55.17-112.62,73.64-158.2,79.43h0A284.7,284.7,0,0,1,1876.78,2090Zm-5.28-110.11a35,35,0,0,0-2.54,69.91c.21,0,15.77,1,38.34-1.83h0c38.69-4.91,93.19-20.37,133.11-66.06,47.48-54.38,60.8-134.67,39.56-238.65-31.51-154.37-50.36-273.86-39.91-355.28,10.65-83,50.9-128.52,130.49-147.74,97.21-23.5,160.34,31.13,189.34,65.77,63,75.3,79.13,185.62,40.07,274.5a35,35,0,1,0,64.08,28.16c49.51-112.68,29.23-252.36-50.48-347.59-67.07-80.13-161.64-112.52-259.45-88.89-110.93,26.8-171.16,97.46-184.14,216-11,100,12.27,226.32,41.42,369,11.36,55.67,16.58,131.74-23.15,178-41,47.61-111.62,44.89-114.62,44.73C1872.92,1979.86,1872.21,1979.84,1871.5,1979.84Z"/><path class="cls-2" d="M2007.23,1995.79c-10.55,73.75-67.45,145.05-67.45,145.05H725.28c-59.2-42.8-113.2-111.3-117.95-177.4l-.05,0c-2.25-30.7,6.15-60.9,29.6-87.75,74-84.65,181.1,7.5,181.1,7.5-134-256.05,114.1-574.3,114.1-574.3a1.48,1.48,0,0,0,.15-.2c152-174.45,666.45-243.15,728.35-166.1a26.55,26.55,0,0,1,6,14.15c5.7,58.1,37.75,138.8,63.15,195.35,16.7,37.15,38.5,71.6,63.9,103.35,59,73.8,90.65,153.35,107.35,222a628.85,628.85,0,0,1,18,139c.45,26.1-1.15,41.55-1.15,41.55C1998.13,1887.64,2014.83,1942.34,2007.23,1995.79Z"/><circle class="cls-6" cx="771.91" cy="2031.67" r="49.29"/><circle class="cls-6" cx="1843.87" cy="2050.28" r="49.29" transform="translate(-644.25 861.69) rotate(-22.5)"/><circle class="cls-6" cx="682.84" cy="1999.79" r="24.78"/><circle class="cls-6" cx="712.57" cy="1942.2" r="24.78"/><circle class="cls-6" cx="779.67" cy="1940.33" r="24.78"/><circle class="cls-6" cx="1830.21" cy="1947.14" r="27.91" transform="translate(-605.82 848.61) rotate(-22.5)"/><circle class="cls-6" cx="1931.99" cy="2020.53" r="27.91" transform="translate(-478.36 3436.62) rotate(-76.72)"/><circle class="cls-6" cx="1905.69" cy="1947.14" r="27.91" transform="translate(-427.2 3354.49) rotate(-76.72)"/><path class="cls-3" d="M1900.93,1677.44a295.73,295.73,0,0,1-72.4,8.9c-164.5,0-297.85-133.35-297.85-297.85a297.3,297.3,0,0,1,129.9-246,26.55,26.55,0,0,1,6,14.15c5.7,58.1,37.75,138.8,63.15,195.35,16.7,37.15,38.5,71.6,63.9,103.35C1852.58,1529.19,1884.23,1608.74,1900.93,1677.44Z"/><g class="cls-4"><path class="cls-5" d="M1917.78,1857.94c-101.25-136.6-251.25-75.5-251.25-75.5,16.79-36.78,53.49-57.18,85.73-68.36,39.31-13.65,61.1-56.49,46.75-95.55-20.24-55.08-60.81-99.2-91.75-138.25-22.49-28.39-42.31-64-56.51-92.53a57.12,57.12,0,0,0-73.59-26.85c-447.82,191.54-645.08-52.06-645.08-52.06a1.48,1.48,0,0,0,.15-.2c152-174.45,666.45-243.15,728.35-166.1a26.55,26.55,0,0,1,6,14.15c5.7,58.1,37.75,138.8,63.15,195.35,16.7,37.15,38.5,71.6,63.9,103.35,59,73.8,90.65,153.35,107.35,222C1925.88,1779.64,1917.78,1857.94,1917.78,1857.94Z"/></g><g class="cls-4"><path class="cls-5" d="M2007.23,1995.79c-10.55,73.75-67.45,145.05-67.45,145.05H725.28c-59.2-42.8-113.2-111.3-117.95-177.4l71.06,66.82a186.63,186.63,0,0,0,127.87,50.68h25.13A155.34,155.34,0,0,0,924,2050.29h0s18.25,20.35,47.15,0c0,0,30,15.55,70.7-29.2,0,0,59.3-18.2,37.7-80.75s-76.25-254.35-40.1-333.1c0,0,36.15,310.55,123,312,0,0,90,23.9,234.6-311.85-1.85,5.95-62.3,197.4-139,322.9,0,0-15.25,73.1,50.65,64.3,0,0,11.25,59.25,99.65,40.05,0,0,106.05,80,160.7-236.15,0,0,22.45-75.55,9.65-172.45,0,0,35.48,169.81-.62,343.38-10.15,48.78,24,95.8,73.52,101.38,40.07,4.51,96.76,8.34,176.82,9.85,56,1.06,110.72-18.91,151.72-57.09A385.45,385.45,0,0,0,2007.23,1995.79Z"/></g><g class="cls-4"><path class="cls-5" d="M1917.78,1857.94s-169.8-40.7-203,183.75c0,0-33.15-234.6,204.15-225.3C1919.38,1842.49,1917.78,1857.94,1917.78,1857.94Z"/></g><g class="cls-4"><path class="cls-5" d="M1267.44,1914.44s15.13,36.33,42.86,33.12a80.29,80.29,0,0,0,16.31-3.46,12.08,12.08,0,0,1,15.75,10.64c1.2,14.21,6.07,30.7,21.78,33.8,21.43,4.23,45.14-8.41,60.2-20.64,6.81-5.53,17.11-2.54,19.48,5.91l.12.43a6.24,6.24,0,0,0,11.15,1.86c25.22-36.52,92.58-149.33,123.59-350.06,0,0,26.41,230.58-105.18,405.63,0,0-31.42,29.11-65.17,3,0,0-69.56,22.19-99.65-40.05C1308.68,1994.59,1237.44,1991.27,1267.44,1914.44Z"/></g><g class="cls-4"><path class="cls-5" d="M870.74,1998.18s52.61,34.15,66,6.62c2.86-5.87,10.64-7.45,15.94-3.63,9.11,6.57,22,11.85,34.95,3.84,12.1-7.46,16-19.67,16.89-30,.78-9.15,6.06-17.66,14.67-20.88,9.5-3.55,18.49-12.43,11.57-34.3-12.59-39.78-45.16-243.5,8.69-312.6,0,0-31.91,69.59,5.61,208.64,0,0,82.49,188.87-3.21,205.21,0,0-20.87,53.84-79.53,28.12C962.35,2049.21,910.12,2086.18,870.74,1998.18Z"/></g><path class="cls-5" d="M1939.76,2160.82H725.3a20,20,0,0,1-11.71-3.79c-55-39.75-117-109.4-125.67-185.66-4.63-40.53,7.1-78.18,33.92-108.88,46.79-53.58,107.15-48.56,154.28-28.41-31-99-20.93-215.74,30.15-341.64,45.78-112.85,107.43-192.56,110-195.9.22-.28.45-.55.68-.82,62.95-72.43,194-135.75,359.69-173.7,143.79-33,287.17-40.16,356.75-18,41,13.09,51.49,34.79,53,50.69,5.39,55.16,36.41,133.28,61.48,189.11,15.25,33.94,35.86,67.26,61.26,99,129.55,162,131.93,347.92,129.52,401.95,45.46,20.07,74.08,50.33,85.15,90.12,27,97.12-64.56,213.42-68.47,218.32A20,20,0,0,1,1939.76,2160.82Zm-1207.89-40H1929.74c18.26-25.39,73.82-109.87,55.58-175.19-8.67-31.05-33-53.59-74.46-68.91a20,20,0,0,1-12.95-20.82c.21-2.09,19.73-213.32-120-388-27.5-34.4-49.87-70.61-66.5-107.63-26.3-58.55-58.9-141-64.82-201.59-.38-4-7.27-10.71-25.38-16.49-124-39.57-542.28,28.92-673.71,179.34-9.64,12.65-236.13,314.74-111.85,552.36a20,20,0,0,1-30.76,24.44c-3.74-3.2-93.09-78.07-153-9.52-19.49,22.32-27.67,48.58-24.31,78C633.45,2017.51,674.12,2077.4,731.87,2120.82Z"/><path class="cls-5" d="M836.85,1876.53c6.72,18.65,14.33,37.76,22.41,56.15a566.67,566.67,0,0,0,26.59,53.56c2.45,4.22,4.87,8.48,7.53,12.39l3.88,6,4.1,5.54c2.66,3.91,5.57,6.85,8.36,10.09a11.77,11.77,0,0,0,2.09,2l2.06,1.79,2,1.85c.73.62,1.74,1.21,2.59,1.82,7,5,14.45,8.69,20.41,9.94a17.89,17.89,0,0,0,7.15.25,8,8,0,0,0,2.16-.74,4.68,4.68,0,0,0,.67-.4c.07-.06.16-.1.11-.08s.06,0-.1.11a9.23,9.23,0,0,0-.73.85l26.55-4.11c-.34-.23-.13-.1.06,0a5.93,5.93,0,0,0,.59.31,14.57,14.57,0,0,0,1.48.69,34.62,34.62,0,0,0,3.28,1.23,30.25,30.25,0,0,0,6.75,1.27,26.54,26.54,0,0,0,12.6-2.21,43.38,43.38,0,0,0,12-9c1.91-2.08,3.69-4.53,5.59-6.77l5.08-7.93,22-9.51h0c-.6-.15,0,0,.1,0l.82.07c.59,0,1.22.06,1.84,0a18,18,0,0,0,3.54-.36,13,13,0,0,0,5-1.95,10.82,10.82,0,0,0,3.3-3.65,28.33,28.33,0,0,0,2.82-7.08c1.46-6,1.72-13.66,1.29-21.64a167.1,167.1,0,0,0-3.44-24.9c-.76-4.22-1.93-8.52-2.82-12.79l-3.4-13c-2.42-9.2-5-18.35-7.29-27.6-4.44-18.5-8.61-37-12.13-55.72-6.87-37.38-12.43-75.06-14-113.23-.43-9.51-.35-19.12-.32-28.65.51-9.6.76-19.15,2-28.73.44-4.76,1.2-9.54,2-14.3q.56-3.55,1.24-7.1l1.75-7c.63-2.34,1.08-4.68,1.84-7l2.49-6.84c1.34-4.58,4.21-8.75,6.28-12.89-3.72,18.6-2.3,37-.71,55.32s4.51,36.55,7.71,54.71c6.19,36.34,13.89,72.5,23.4,108.18,4.49,17.9,9.64,35.64,15,53.28,2.53,8.85,5.44,17.6,8.14,26.4,2.85,9.13,5.86,18.73,8,28.53a209.15,209.15,0,0,1,4.88,30.59,110.33,110.33,0,0,1-2.13,34.2,67.27,67.27,0,0,1-7.71,18.82,51.33,51.33,0,0,1-37.11,24.1,58.66,58.66,0,0,1-10.45.57c-1.72,0-3.42-.18-5.17-.38l-2.65-.36c-1-.18-1.62-.26-3.35-.66h-.06l22-9.51-7.28,11.37c-2.93,3.66-5.73,7.37-9,10.89-6.76,7-14.75,13.5-24.63,18a66.83,66.83,0,0,1-32.05,5.65,70.37,70.37,0,0,1-15.72-3,76.89,76.89,0,0,1-7.44-2.79c-1.22-.49-2.47-1.14-3.7-1.75-.6-.29-1.25-.65-1.94-1s-1.27-.7-2.41-1.44l26.55-4.11a30.11,30.11,0,0,1-2.06,2.26c-.59.61-1,1-1.52,1.42a36.28,36.28,0,0,1-2.9,2.36,43.33,43.33,0,0,1-5.9,3.69,47.73,47.73,0,0,1-12.38,4.46,57.51,57.51,0,0,1-23.6-.16c-14.31-3.12-25.48-9.51-35.27-16.32-1.25-.89-2.47-1.63-3.73-2.65l-3.81-3.27c-2.39-2.2-5.32-4.42-7.18-6.69-4-4.52-8.27-9.09-11.46-13.72l-5.11-6.94-4.55-7c-3.14-4.66-5.82-9.38-8.57-14.1a605.07,605.07,0,0,1-28.55-57.45c-8.54-19.46-16.25-38.77-23.54-59Z"/><path class="cls-5" d="M955.55,2053.49a137.8,137.8,0,0,1-8.06-16.83c-2.3-5.77-4.36-11.66-6.14-17.69a117.59,117.59,0,0,1-4.11-18.63c-.8-6.32-1-13.32,1.09-19.7,3.56,5.55,7.47,10,11.17,14.72s7.24,9.39,10.89,14.06l10.72,14.09c3.45,4.71,7,9.55,10,14.28Z"/><path class="cls-5" d="M1025.88,2027.38c-3.75-12.5-7.17-25.07-10.19-37.84-1.57-6.36-3.06-12.74-4.34-19.22a179.51,179.51,0,0,1-3-19.68c8.19,10.52,15.77,21.1,23.08,31.86,7.47,10.67,14.69,21.48,21.7,32.29Z"/><path class="cls-5" d="M1914.32,1877.66c-.52-.09-2.13-.33-3.34-.45s-2.66-.28-4-.38c-2.74-.19-5.54-.36-8.36-.46a158.62,158.62,0,0,0-17,.37,171.45,171.45,0,0,0-33.59,5.92,153.55,153.55,0,0,0-59.91,32.67,195.3,195.3,0,0,0-23.92,26.11c-3.4,4.93-7.08,9.72-10.08,15-1.58,2.59-3.31,5.1-4.81,7.77l-4.39,8.07c-11.78,21.63-21,45.15-30.11,69.42a224.46,224.46,0,0,1,12-77.24,202.8,202.8,0,0,1,40.53-69.94,174.65,174.65,0,0,1,69.32-46.49,180.74,180.74,0,0,1,41.1-9.8,198.7,198.7,0,0,1,21.16-1.41c3.56,0,7.13,0,10.75.24,1.8.1,3.63.25,5.48.43s3.52.35,6.15.77Z"/><path class="cls-5" d="M1882.48,1866c-.78-1.37-2.3-3.86-3.61-5.83s-2.76-4.22-4.23-6.31c-2.92-4.18-6-8.32-9.2-12.35a224.53,224.53,0,0,0-20.83-22.74,169.51,169.51,0,0,0-50.78-33.68c-18.91-7.84-39.65-11.55-61.17-11.64s-43.67,3.65-66.11,9a174.57,174.57,0,0,1,64-28.49,155.24,155.24,0,0,1,73,1.94c24.13,6.49,46.68,18.69,65.91,34.33a211,211,0,0,1,26.55,25.9c4,4.7,7.9,9.51,11.46,14.62,1.8,2.54,3.59,5.1,5.26,7.79s3.18,5.14,5.12,8.75Z"/><path class="cls-5" d="M1397.08,1607.25c-3.57,28.18-10.4,55.28-18.35,82s-17.83,52.67-27.38,78.83-19.91,52-30.77,77.82c-2.63,6.48-5.46,12.89-8.37,19.28s-5.66,12.82-8.75,19.18l-9.12,19.1-9.81,19,1-1.94c-.48,1.26-1.31,3.59-1.9,5.49s-1.22,4-1.76,6.09a107.6,107.6,0,0,0-2.45,12.15c-1.19,7.9-1.08,15.53.47,20.48,1.75,5,3.15,6.65,7.24,8.81,4.36,1.87,11.55,3.15,19.59,2.74h0l20.78,15.79c-.1-.46,0-.06.09.18a5.34,5.34,0,0,0,.3.87,15.25,15.25,0,0,0,.8,2,43.1,43.1,0,0,0,2.09,4.12,37,37,0,0,0,2.68,3.8l1.44,1.82,1.65,1.59a38,38,0,0,0,16.4,9.13c6.38,2.15,14.19,2.09,21.94,2,4-.52,8.06-.91,12.14-1.51l12.42-2.75h0l15.94,2.47c-.22-.14.23.11.53.26s.7.35,1.09.53a26.52,26.52,0,0,0,2.45,1.06,45.84,45.84,0,0,0,5.22,1.79,48.91,48.91,0,0,0,10.56,1.71,35.11,35.11,0,0,0,19.26-4.44c6-3.37,11.69-8.66,16.9-15.08,1.28-1.63,2.4-3.54,3.65-5.27,1.21-1.89,2.46-3.3,3.69-5.55,2.44-4.3,5-8.47,7.36-12.86,9.59-17.47,18.21-35.87,26.38-54.41l6-14,5.59-14.18c3.93-9.38,7.16-19,10.74-28.57,13.4-38.42,24.25-77.84,31-118,.78-5,1.76-10,2.5-15.06l2-15.12c1.7-10.09,2.36-20.22,3.69-30.41l.93-7.65.47-7.67,1.33-15.44c.89-10.34.83-20.7,2-31.39a274.58,274.58,0,0,1,8.74,30.64c1.7,10.42,4,21,4.59,31.59.82,10.6,1.68,21.31,1.27,31.94l-.37,16c-.25,5.32-.83,10.6-1.3,15.9a665.48,665.48,0,0,1-24.08,125.15c-6,20.39-12.55,40.67-20.44,60.48s-16,39.55-26.1,58.78c-2.44,4.83-5.19,9.61-7.78,14.43-1.21,2.34-3.16,5.07-4.73,7.58s-3.24,5.13-5.14,7.6c-7.73,9.84-17.18,19.27-29.34,26.16a74.47,74.47,0,0,1-40.76,9.38,82.78,82.78,0,0,1-20.12-3.57,89.92,89.92,0,0,1-9.44-3.49c-1.54-.65-3.09-1.37-4.65-2.18-.77-.39-1.53-.77-2.38-1.26s-1.53-.84-2.85-1.68l15.94,2.47h0l-15.83,3.49c-5.44.85-11,1.43-16.56,2-11.44.25-23.23.26-35.37-3.46a78.11,78.11,0,0,1-33.39-19l-3.49-3.5-3.11-3.81a75.49,75.49,0,0,1-5.6-8,80.91,80.91,0,0,1-4.46-8.76c-.68-1.48-1.29-3.07-1.86-4.71-.29-.79-.57-1.61-.84-2.55s-.52-1.68-.88-3.31l20.78,15.79h0c-11.59.76-24.65.54-38.57-5.27a53.85,53.85,0,0,1-19.18-14,54.7,54.7,0,0,1-11-20.51c-4-14.09-3.28-26.73-1.56-38.27a149.19,149.19,0,0,1,3.77-16.79c.78-2.72,1.61-5.4,2.53-8.08s1.8-5.11,3.18-8.42l0-.07a20.44,20.44,0,0,1,.92-1.88c13.2-23.31,25.56-47.72,37.58-72.32,12.22-24.53,23.57-49.61,35.28-74.57s22.45-50.38,34.52-75.3S1381.66,1631.07,1397.08,1607.25Z"/><path class="cls-5" d="M1294.59,1989.27c3.88-5.43,7.79-10.82,11.86-16.14s8.21-10.59,12.32-15.87,8.45-10.45,12.75-15.64,8.82-10.26,13.6-15.09l-5.63,19.39-5.82,19.21c-2.05,6.35-3.94,12.77-6.06,19.07s-4.21,12.63-6.39,18.88Z"/><path class="cls-5" d="M1391.6,2025.1l27.78-37c4.55-6.24,9.35-12.37,13.85-18.67a217.54,217.54,0,0,0,13.14-19.3c-.53,8-2.64,15.75-4.64,23.41-2.23,7.58-4.52,15.17-7.15,22.59s-5.2,14.87-8.08,22.17-5.79,14.55-8.93,21.84Z"/><path class="cls-3" d="M2021.28,903.94c0,132.87-52,240.89-140.4,322.83-10.76,10.06-22.08,19.6-33.87,28.85a0,0,0,0,1,0,.05c-45,35.14-97.35,64.65-155.57,88.52-96.65,39.56-209.46,63.48-331.15,71.23h0q-43.62,2.82-88.66,2.77c-183.71,0-352-34.81-482.4-103a612.84,612.84,0,0,1-93-59.48,0,0,0,0,1,0-.05A503.28,503.28,0,0,1,657,1221.84c-35.71-34.11-65.22-72.59-87.49-115.4-30.82-59.34-47.73-126.9-47.73-202.5,0-68.23,14.23-135.09,40.26-198.38,5.36-46.46,10.86-92.51,16.78-138,21.47-163.7,49.24-320.63,99.84-465.25C705.21,26.48,796.46-3.54,862.29,42.41c94.44,66.06,185.87,159.05,238.4,236.62l-6.2,4.93a842.4,842.4,0,0,1,188.22-21.19A827,827,0,0,1,1446.6,279c52.53-77.57,144-170.56,238.4-236.62,65.83-45.95,157.12-15.93,183.67,59.91,20.81,59.48,37.82,121.08,52,184.42,30.31,134.61,48.3,276.88,65.12,423.1l-1.13-.89c6.68,17.57,12.55,35.38,17.44,53.47A534.66,534.66,0,0,1,2021.28,903.94Z"/><path class="cls-5" d="M1271.53,1420.69c-187.16,0-354.37-35.72-483.56-103.32a619.86,619.86,0,0,1-92.69-59.2h-1.64l0-1.31a507.49,507.49,0,0,1-38.39-33.21c-36.41-34.78-66-73.83-88-116.05-31.87-61.35-48-129.87-48-203.66,0-66.88,13.57-133.84,40.33-199,6.25-54.21,11.57-98,16.73-137.69,18.69-142.45,45.18-309.17,100-465.76a123.51,123.51,0,0,1,79.19-77.33,122.15,122.15,0,0,1,108.27,16.2c90.46,63.27,184.28,156.4,239,237.27l1.14,1.69a842.78,842.78,0,0,1,178.81-19.05,832.78,832.78,0,0,1,162.75,16c54.88-80.53,148.16-173,238.11-235.89a122.18,122.18,0,0,1,108.32-16.19A123.47,123.47,0,0,1,1871,101.49c20,57.26,37.07,117.68,52.09,184.7,31.06,138,49.22,284.79,65.17,423.36l.31,2.74c6.21,16.71,11.56,33.34,15.92,49.47a538.09,538.09,0,0,1,19.25,142.18c0,128.57-47.5,237.8-141.19,324.66-10,9.32-20.8,18.56-33.07,28.24v1.29l-1.67,0c-44.22,34.45-96.53,64.17-155.5,88.35-96.5,39.5-208.18,63.53-331.94,71.42C1331.83,1419.76,1301.94,1420.69,1271.53,1420.69ZM698.6,1254.41a613.4,613.4,0,0,0,91.69,58.52c128.47,67.23,294.88,102.76,481.24,102.76,30.31,0,60.08-.93,88.5-2.77,123.27-7.85,234.42-31.75,330.41-71,58.44-24,110.27-53.39,154.07-87.47l1-.75c12.56-9.86,23.59-19.25,33.72-28.71,92.63-85.89,139.59-193.89,139.59-321a533.16,533.16,0,0,0-19.08-140.86c-4.68-17.35-10.52-35.26-17.36-53.25l-3.21-8.48,3.51,2.79c-15.76-136.68-33.83-281.12-64.39-416.86-15-66.83-32-127.07-51.93-184.14a118.47,118.47,0,0,0-76-74.21,117.2,117.2,0,0,0-103.92,15.53c-90,63-183.32,155.58-237.76,236l-.94,1.38-1.63-.33a827.6,827.6,0,0,0-163.39-16.21A839,839,0,0,0,1095,286.4l-10.69,2.44,13-10.32C1042.7,198.57,950.13,106.91,860.85,44.46A117.18,117.18,0,0,0,757,28.92a118.54,118.54,0,0,0-76,74.22C626.34,259.3,599.91,425.71,581.26,567.9c-5.18,39.77-10.51,83.6-16.77,138l-.17.67c-26.6,64.66-40.09,131.08-40.09,197.42,0,73,16,140.73,47.46,201.35,21.72,41.74,51,80.34,87,114.74a500.53,500.53,0,0,0,38.94,33.62Z"/><path class="cls-2" d="M1726.16,1323.42s-13.2,7.85-34.77,20.77c-96.65,39.56-209.46,63.48-331.15,71.23h0q-43.62,2.82-88.66,2.77c-183.71,0-352-34.81-482.4-103-31-94.63,52-162,186.63-205,50.83-16.26,90.63-56.85,103.41-108.68,52.81-214,307.1-214,359.91,0,12.78,51.83,52.58,92.42,103.41,108.68C1681,1154.42,1764.92,1224.42,1726.16,1323.42Z"/><g class="cls-4"><path class="cls-5" d="M567.74,883.34c0,75.6,16.89,143.18,47.74,202.51,22.25,42.8,51.76,81.27,87.45,115.37A505.3,505.3,0,0,0,742.08,1235s0,.06,0,.06c137.51,107.43,344.25,162.54,575.4,162.54,30,0,59.59-.92,88.64-2.78h0c109.19-7,211.17-26.88,300.83-59.59,49.91-22.15,95.18-48.72,134.74-79.57a0,0,0,0,0,0-.05c11.79-9.22,23.13-18.8,33.89-28.85q12.75-11.82,24.52-24.41c-112,63-254.38,100.07-411.62,110.07h-.06c-29,1.85-58.66,2.78-88.63,2.78-231.15,0-437.89-55.11-575.41-162.55a0,0,0,0,1,0-.05,505,505,0,0,1-39.14-33.79c-35.69-34.09-65.2-72.57-87.45-115.37-30.85-59.33-47.75-126.9-47.75-202.51,0-68.24,14.22-135.09,40.28-198.39,5.35-46.46,10.81-92.5,16.74-138,20.39-155.49,46.45-304.85,92.45-443.4a121.13,121.13,0,0,0-30,.93c-20,14-40.88,29.27-50.46,54.42-50.93,133.84-78.95,307.58-100.43,471.26-5.92,45.48-11.81,90.89-17.17,137.34C575.51,748.41,567.74,815.09,567.74,883.34Z"/></g><g class="cls-7"><path class="cls-2" d="M1679.86,42.43q-12,8.43-24,17.41c63.61-30.54,142.15.46,166.46,69.94,65.1,186.09,92.45,392.57,117.12,607.49l-1.13-.87c23.79,62.26,36.62,127.93,36.62,195,0,132.88-52,240.88-140.4,322.83q-16.15,15.06-33.89,28.84a0,0,0,0,1-.05,0c-4.79,3.76-9.69,7.47-14.68,11.07a585.25,585.25,0,0,0,55.88-38.52,0,0,0,0,0,0-.05c11.79-9.22,23.13-18.8,33.89-28.85,88.38-81.94,140.4-189.94,140.4-322.82,0-67.06-12.83-132.73-36.62-195l1.13.88c-24.67-214.93-52-421.41-117.12-607.49C1837,26.47,1745.68-3.56,1679.86,42.43Z"/></g><g class="cls-7"><path class="cls-2" d="M701.59,57A119.79,119.79,0,0,1,815.93,69.88c83.64,58.47,164.9,138.09,218.89,209.41a54.73,54.73,0,0,0,52.87,20.61l.34,0h0c3.09-5.72,6.49-11.85,9.79-17.77-2.84.62-5.72,1.24-8.55,1.91l6.23-4.95c-52.54-77.56-144-170.58-238.41-236.61C806.71,7.2,741.36,16.58,701.59,57Z"/></g><path class="cls-8" d="M1635,344.81c31.73-58.09,72.77-113.15,102.34-149.87,15.71-19.58,47.07-12.42,52.79,12.05,14.42,61.65,34.71,165.69,37.65,273.74v0"/><path class="cls-5" d="M1827.78,480.78h-2.5c-2.86-105.26-22-206.68-37.59-273.22a27.44,27.44,0,0,0-20.8-20.68,27.05,27.05,0,0,0-27.6,9.62c-29,36-70.25,91.18-102.1,149.51l-4.38-2.4c32-58.65,73.46-114.07,102.58-150.24a32.61,32.61,0,0,1,57.17,13c15.62,66.77,34.85,168.55,37.72,274.24Z"/><g class="cls-7"><path class="cls-2" d="M1607.54,375.22l135.69,90.65a95.85,95.85,0,0,0,81.25,12h0L1635,344.81c31.73-58.1,72.78-113.15,102.34-149.88a1.23,1.23,0,0,1,.36-.36c-11.44-13.85-34.1-15.34-46.72.36-24.51,30.46-63.36,81.45-94,131.11A36.19,36.19,0,0,0,1607.54,375.22Z"/></g><g class="cls-4"><path class="cls-5" d="M1725.9,209.3a30.59,30.59,0,0,1,2.43,6.7c11.94,51.14,28,131.54,34.76,219.15l64.69,45.63v0c-2.94-108.06-23.23-212.09-37.65-273.74-5.72-24.47-37.08-31.63-52.79-12.06Q1731.85,201.74,1725.9,209.3Z"/></g><path class="cls-8" d="M709.21,480.78v0c2.94-108,23.23-212.09,37.65-273.74,5.72-24.47,37.08-31.63,52.79-12.05,29.57,36.72,70.61,91.78,102.34,149.87"/><path class="cls-5" d="M711.71,480.8l-5-.07c2.88-105.74,22.1-207.53,37.71-274.31a32.61,32.61,0,0,1,57.18-13c29.12,36.18,70.56,91.61,102.58,150.24L899.8,346C868,287.7,826.7,232.52,797.71,196.5a27,27,0,0,0-27.61-9.62,27.44,27.44,0,0,0-20.8,20.68C733.73,274.11,714.57,375.55,711.71,480.8Z"/><g class="cls-7"><path class="cls-2" d="M709.21,487.25h0l.42-19.45C713.75,364.43,733,266.16,746.87,207a30.12,30.12,0,0,1,5.51-11.75c-15.61-4.68-33.89,3.92-38.12,22-12.92,55.27-30.57,144.6-36.2,240.35A28,28,0,0,0,709.21,487.25Z"/></g><g class="cls-4"><path class="cls-5" d="M741.41,231.14a30.51,30.51,0,0,1,5,5c29.1,36.15,69.38,90.13,100.85,147.25L902,344.81c-31.73-58.1-72.78-113.15-102.34-149.88C784,175.36,752.58,182.52,746.87,207,745.12,214.46,743.31,222.49,741.41,231.14Z"/></g><path class="cls-5" d="M1174.28,959c0,20.71,28.63,37.43,63.83,37.34s63.69-16.94,63.64-37.65-28.59-22.42-63.79-22.34S1174.23,938.27,1174.28,959Z"/><path class="cls-5" d="M1101.3,980.13c4.77,14.86,11.2,28.67,21.13,37.42,9.54,9,21.7,12.61,34.08,11.94s25-5.57,35.41-13.06a72.36,72.36,0,0,0,14-13.11l2.9-3.76,3.16-4.68a30.55,30.55,0,0,1,50-.12l3.18,4.66,2.91,3.77a73.3,73.3,0,0,0,14.07,13c10.48,7.43,23.06,12.4,35.48,12.9s24.54-3,34-12.12c9.88-8.81,16.25-22.65,20.92-37.54l.05-.15a5.22,5.22,0,0,1,10.19,1.34c.71,16.82-2.56,35.16-13.68,51.12a67.8,67.8,0,0,1-22,19.52,70.91,70.91,0,0,1-28.61,8.29c-19.88,1.62-39.22-4.31-55.54-14.45a101.25,101.25,0,0,1-22.06-18.75c-1.56-1.86-3.1-3.76-4.59-5.69l-2.11-3-1-1.5c-.33-.49-.85-1.23-.55-.74a5.18,5.18,0,0,0,8.74,0c.3-.49-.22.26-.55.75l-1,1.51-2.09,3-4.56,5.72a101.83,101.83,0,0,1-22,18.87c-16.28,10.21-35.6,16.27-55.48,14.73a71,71,0,0,1-28.67-8.15,67.91,67.91,0,0,1-22.1-19.43c-11.19-15.91-14.55-34.24-13.9-51.07a5.22,5.22,0,0,1,10.18-1.4Z"/><ellipse class="cls-2" cx="1569.36" cy="855.14" rx="120.72" ry="153.13" transform="translate(-2.08 3.83) rotate(-0.14)"/><path class="cls-5" d="M1569.49,1023.91c-75.06,0-136.26-75.49-136.49-168.44s60.76-168.91,136-169.09h.26c75.07,0,136.27,75.48,136.5,168.43.11,44.4-13.54,86.33-38.42,118.05-25.76,32.83-60.39,51-97.52,51Zm-.27-306.26h-.2c-57.94.14-104.93,61.94-104.75,137.75s47.37,137.23,105.22,137.24h.2c27.36-.07,53.27-13.95,73-39.08,20.57-26.22,31.85-61.26,31.76-98.67C1674.25,779.16,1627.07,717.65,1569.22,717.65Z"/><ellipse class="cls-5" cx="1549.61" cy="869.96" rx="96.72" ry="125.01" transform="translate(-2.12 3.78) rotate(-0.14)"/><ellipse class="cls-2" cx="1572.16" cy="827.42" rx="22.66" ry="33.17" transform="translate(-2.02 3.84) rotate(-0.14)"/><ellipse class="cls-2" cx="913.38" cy="855.14" rx="153.13" ry="120.72" transform="translate(56.01 1766.43) rotate(-89.86)"/><path class="cls-5" d="M913.24,1023.91H913c-37.13-.09-71.76-18.22-97.51-51-24.89-31.74-38.54-73.66-38.43-118.06h0c.23-92.94,61.44-168.43,136.5-168.43h.27c75.18.18,136.17,76,135.94,169.09S988.3,1023.91,913.24,1023.91Zm-105-169c-.09,37.4,11.19,72.44,31.76,98.67,19.72,25.13,45.64,39,73,39.08h.2c57.85,0,105-61.51,105.22-137.24s-46.8-137.61-104.75-137.75h-.19c-57.86,0-105,61.51-105.23,137.24Z"/><ellipse class="cls-5" cx="933.12" cy="869.96" rx="125.01" ry="96.72" transform="translate(60.89 1800.95) rotate(-89.86)"/><ellipse class="cls-2" cx="910.57" cy="827.42" rx="33.17" ry="22.66" transform="translate(80.93 1735.97) rotate(-89.86)"/><path class="cls-5" d="M1318.57,1044.79c0,21.68-6.39,39-16.69,52.07-30.9,39.3-96.88,39.3-127.78,0-10.3-13-16.69-30.39-16.69-52.07,31.27-6.29,58.67-17.77,80.61-36.52C1260.73,1028.67,1286.64,1042.78,1318.57,1044.79Z"/><path class="cls-9" d="M1301.88,1096.86c-30.9,39.3-96.88,39.3-127.78,0C1205,1057.46,1271,1057.46,1301.88,1096.86Z"/><path class="cls-5" d="M1238,1144.35c-25.56,0-49.52-8.88-67.45-25-14.21-12.79-31.15-36.09-31.15-74.55h36c0,43.86,31.42,63.49,62.55,63.49s62.55-19.63,62.55-63.49h36.06C1336.62,1110.16,1287,1144.35,1238,1144.35Z"/><path class="cls-5" d="M1827.78,498.81a18,18,0,0,1-12-4.6c-60.53-54.16-124.18-99.06-189.19-133.47a18,18,0,0,1-7.39-24.57c32.59-59.68,74.61-115.89,104.12-152.54a48.13,48.13,0,0,1,84.38,19.26c15.79,67.46,35.21,170.35,38.12,277.35,0,.17,0,.38,0,.54a18,18,0,0,1-18,18Zm-168.09-161.1c50.58,28.16,100.22,62.38,148.13,102.09-5.85-88.57-21.88-171.6-35.25-228.71a12.08,12.08,0,0,0-21.17-4.87C1725.43,238.48,1689.52,286.26,1659.69,337.71Z"/><path class="cls-5" d="M1266.39,1438.8c-216.58,0-403.74-46.28-541.25-133.82C575.23,1209.53,496,1070.85,496,903.94c0-68.48,13.69-136.92,40.7-203.5C561.17,487.83,588.9,281.67,654,95.53A141.43,141.43,0,0,1,744.74,6.92,140.09,140.09,0,0,1,868.93,25.54c89,62.22,181.35,153.05,238,233.66,107.19-21.59,218.89-22.6,325.3-2.93C1488.94,176.4,1580.12,87,1668.06,25.55a140.07,140.07,0,0,1,124.2-18.63,141.43,141.43,0,0,1,90.7,88.6c65.84,188.19,93.46,396.85,118.15,612,0,.13,0,.26,0,.39,23.62,63.94,35.58,129.87,35.58,196.08,0,166.91-79.23,305.59-229.12,401C1670.11,1392.52,1483,1438.8,1266.39,1438.8ZM572,723.27c-23.07,59.31-34.76,120-34.76,180.67,0,152.11,72.65,278.77,210.08,366.27,129,82.15,313.37,127.39,519.12,127.39s390.08-45.24,519.09-127.38c137.41-87.51,210-214.16,210-366.28,0-62.91-11.7-125.64-34.77-186.45a20.62,20.62,0,0,1-1.14-10.17c-24.28-211-51.6-415.41-115.55-598.19a100.5,100.5,0,0,0-64.46-63,99.17,99.17,0,0,0-87.95,13.18c-88.28,61.71-179.8,152.49-233.15,231.28a20.65,20.65,0,0,1-21.13,8.64c-110-22.19-226.51-21-337.39,3.52a20.59,20.59,0,0,1-24.8-17c-53.78-77.65-143.38-166-229.86-226.46a99.18,99.18,0,0,0-87.94-13.18,100.55,100.55,0,0,0-64.48,63C629,291.77,601.69,496,577.43,706.79a21.13,21.13,0,0,1-.25,2.23c-.12,1.06-.25,2.1-.36,3.15A20.49,20.49,0,0,1,572,723.27Z"/><path class="cls-5" d="M709.2,498.81a18,18,0,0,1-17.91-20c1-8.71,23.52-213.94,38-275.94a48.14,48.14,0,0,1,84.4-19.23c29.5,36.65,71.53,92.88,104.1,152.52a18,18,0,0,1-6.54,24.09c-60.08,36.11-122.51,80.14-190.82,134.62A18,18,0,0,1,709.2,498.81ZM776.37,201.7a13,13,0,0,0-2.83.32,11.8,11.8,0,0,0-9.13,9.07C754.33,254.23,739.55,375,732,440.05c51.07-39.25,99.14-72.74,145.77-101.57-29.9-51.71-66-99.82-92.14-132.24A11.48,11.48,0,0,0,776.37,201.7Z"/><g class="cls-10"><path class="cls-2" d="M1340.77,338.27c91.59,14.6,165.76,41.92,218.67,84.74,18.76,15.18,11.37,45.52-12.19,50.75-105.88,23.51-187.69-1.78-236.82-93.32C1299.14,359.4,1317.19,334.51,1340.77,338.27Z"/></g><g class="cls-10"><path class="cls-2" d="M1674.86,570.59c17.12-12.9,16.62-42.45-1.12-66s-46-32.21-63.12-19.31-6,34.48,11.69,58S1657.74,583.48,1674.86,570.59Z"/></g><g class="cls-4"><path class="cls-2" d="M927.26,1029.39a165.9,165.9,0,0,1-54.54,9.31,210.56,210.56,0,0,1-65.29-10.38L687.6,719.79c23-30.7,56.83-51.1,94.95-62.91Z"/></g><g class="cls-4"><path class="cls-2" d="M1704,1019.37a213,213,0,0,1-88.37,19.33,161,161,0,0,1-24.26-1.84l-130.7-336.58c25.37-25.42,59.91-42.69,99.65-50.83Z"/></g><g class="cls-4"><path class="cls-2" d="M1809.76,918.38a221.38,221.38,0,0,1-56.61,70.25L1619.32,644c30.42.31,61.07,4.65,89.22,13.74Z"/></g><g class="cls-4"><path class="cls-2" d="M1048.46,918.38a221.49,221.49,0,0,1-56.6,70.25L858,644c30.43.31,61.08,4.65,89.22,13.74Z"/></g><path class="cls-9" d="M1996.62,664a166.49,166.49,0,0,1-78.31-11.14c-8.54-3.4-16.37-8.37-23.8-13.78-186.73-137.55-414.31-82.38-574.95,30.51q-75.37-67-150.75,0c-160.64-112.89-388.22-168.06-574.95-30.51-7.43,5.41-15.26,10.38-23.81,13.78A166.24,166.24,0,0,1,491.79,664a11.25,11.25,0,0,0-12.48,11.19v39.11a11.28,11.28,0,0,0,9.26,11c41,7.88,63.09,40.54,70.65,92.23,106.19,480,615.94,346,617.73-55.49a39.52,39.52,0,0,1,32.13-38.62c23.89-4.65,47.38-5,70.39-.71a39.36,39.36,0,0,1,32,38.61c1.21,402,511.5,536.47,617.73,56.21,7.51-51.69,29.62-84.35,70.61-92.23a11.25,11.25,0,0,0,9.26-11V675.18A11.22,11.22,0,0,0,1996.62,664ZM872.72,1038.7c-111.64,0-207.63-89-216-197.69-11-143.24,104.4-197.07,216-197.07s200.42,62.2,200.42,171.25S984.41,1038.7,872.72,1038.7Zm959-197.69c-8.41,108.69-104.39,197.69-216,197.69s-200.42-114.55-200.42-223.51S1504,643.94,1615.65,643.94,1842.69,697.77,1831.68,841Z"/><path class="cls-5" d="M862.82,1126.57c-62,0-121.92-21.73-171.3-62.59-64.33-53.22-110.92-138.26-134.74-245.92-7.82-53.45-30.28-82.93-68.68-90.31a13.82,13.82,0,0,1-11.29-13.46V675.18a13.77,13.77,0,0,1,15.25-13.68,164.56,164.56,0,0,0,77.07-11c7.16-2.84,14.55-7.13,23.25-13.47,191.74-141.22,423-77.64,576.25,29.36,50.14-43.69,101-43.68,151.1,0,153.22-107,384.53-170.59,576.26-29.35,8.69,6.33,16.08,10.62,23.24,13.46a164.8,164.8,0,0,0,77.12,11h0a13.73,13.73,0,0,1,15.2,13.68v39.11a13.82,13.82,0,0,1-11.3,13.46c-38.41,7.38-60.85,36.86-68.6,90.13-23.86,107.89-70.48,193-134.85,246.16-56.93,47.07-127.9,68.72-199.81,61-75.72-8.16-146.58-46.92-199.54-109.15-57.6-67.67-88.2-155.69-88.5-254.54a36.92,36.92,0,0,0-30-36.16c-22.16-4.19-45.53-3.95-69.43.71A37.15,37.15,0,0,0,1179.45,762c-.44,98.72-31.12,186.59-88.74,254.13-53,62.11-123.82,100.78-199.47,108.87A268.91,268.91,0,0,1,862.82,1126.57ZM490.59,666.43a8.79,8.79,0,0,0-5.89,2.25,8.63,8.63,0,0,0-2.89,6.5v39.11a8.81,8.81,0,0,0,7.23,8.55c40.18,7.72,64.63,39.45,72.66,94.31,53.87,243.5,205.27,316.19,329,302.92,140.28-15,282.79-142.82,283.75-358A42.17,42.17,0,0,1,1208.6,721c24.54-4.78,48.54-5,71.33-.72a42,42,0,0,1,34,41.07c.64,215.52,143.14,343.6,283.57,358.73,123.77,13.32,275.29-59.27,329.21-303.07,8-54.67,32.38-86.41,72.58-94.13a8.8,8.8,0,0,0,7.24-8.55V675.18a8.74,8.74,0,0,0-9.68-8.71,169.82,169.82,0,0,1-79.49-11.3c-7.57-3-15.3-7.48-24.36-14.08-190.27-140.17-420.25-76.12-572,30.54l-1.61,1.14-1.48-1.31c-49.61-44.09-97.84-44.08-147.43,0l-1.48,1.31-1.62-1.14c-151.78-106.67-381.76-170.7-572-30.55-9.06,6.61-16.8,11.08-24.36,14.09a169.6,169.6,0,0,1-79.46,11.3C491.21,666.44,490.9,666.43,490.59,666.43ZM1615.64,1041.2c-116.13,0-202.92-119.32-202.92-226,0-103.92,81.55-173.74,202.92-173.74,74.4,0,138.92,23.58,177,64.7,31.82,34.35,45.79,79.78,41.55,135.05h0C1825.64,951.48,1727.61,1041.2,1615.64,1041.2Zm0-394.75c-118.38,0-197.92,67.81-197.92,168.74,0,104.33,84.65,221,197.92,221,109.41,0,205.21-87.65,213.55-195.39h0c4.14-53.82-9.39-98-40.22-131.28C1751.83,669.44,1688.66,646.45,1615.64,646.45ZM872.72,1041.2c-112,0-210-89.72-218.53-200-4.25-55.27,9.73-100.7,41.54-135.05,38.08-41.12,102.59-64.7,177-64.7,121.37,0,202.92,69.82,202.92,173.74C1075.64,921.88,988.86,1041.2,872.72,1041.2Zm0-394.75c-73,0-136.18,23-173.32,63.09C668.57,742.83,655,787,659.17,840.82c8.34,107.73,104.14,195.38,213.55,195.38,113.28,0,197.92-116.68,197.92-221C1070.64,714.26,991.1,646.45,872.72,646.45Z"/><g class="cls-11"><path class="cls-2" d="M1996.62,664a166.49,166.49,0,0,1-78.31-11.14c-8.54-3.4-16.37-8.37-23.8-13.78-186.73-137.55-414.31-82.38-574.95,30.51q-75.37-67-150.75,0c-160.64-112.89-388.22-168.06-574.95-30.51-7.43,5.41-15.26,10.38-23.81,13.78A166.24,166.24,0,0,1,491.79,664a11.25,11.25,0,0,0-12.48,11.19v38A11.24,11.24,0,0,1,491.79,702a166.28,166.28,0,0,0,78.26-11.15c8.55-3.4,16.38-8.36,23.81-13.78,186.73-137.55,414.31-82.38,574.95,30.52q75.38-67,150.75,0c160.64-112.9,388.22-168.07,575-30.52,7.43,5.42,15.26,10.38,23.8,13.78A166.53,166.53,0,0,0,1996.62,702a11.21,11.21,0,0,1,12.44,11.18v-38A11.22,11.22,0,0,0,1996.62,664Zm-165,177.91c-8.86,108.29-104.61,196.8-215.94,196.8-105.07,0-189.91-101.49-199.48-204.27a182.53,182.53,0,0,0-.94,18.79c0,109,88.77,223.51,200.42,223.51s207.62-89,216-197.69A223,223,0,0,0,1831.59,841.9Zm-759.39-7.47c-9.58,102.78-94.37,204.27-199.48,204.27-111.33,0-207.09-88.51-216-196.8a223,223,0,0,0-.09,37.14c8.41,108.69,104.4,197.69,216,197.69s200.42-114.55,200.42-223.51A182.53,182.53,0,0,0,1072.2,834.43Z"/></g><path class="cls-5" d="M862.78,1141.24c-65.37,0-128.57-22.9-180.61-66C615.3,1020,567,932.11,542.47,821.23c-.09-.4-.17-.81-.23-1.22-9-61.7-36.79-74-56.89-77.84a28.54,28.54,0,0,1-23.21-27.88V675.18a28.42,28.42,0,0,1,31.46-28.27,150,150,0,0,0,70.15-10c6-2.37,12.32-6.09,20-11.69,194.09-143,426.72-83.16,584.1,22.88,50.16-38.89,102.53-38.89,152.69,0,157.37-106,390-165.86,584.17-22.83,7.61,5.55,14,9.27,20,11.64a150.06,150.06,0,0,0,70.12,10h0a28.4,28.4,0,0,1,31.46,28.27v39.11a28.52,28.52,0,0,1-23.17,27.87c-20.13,3.87-47.9,16.15-56.92,77.85-.07.41-.14.82-.23,1.22-24.53,110.93-72.88,198.81-139.8,254.13-60,49.61-134.86,72.42-210.74,64.25-79.46-8.56-153.73-49.13-209.14-114.23-59.87-70.35-91.68-161.64-92-264a22.23,22.23,0,0,0-18-21.79c-20.31-3.84-41.82-3.62-63.92.67a22.47,22.47,0,0,0-18.22,21.83c-.45,102.24-32.35,193.38-92.25,263.6-55.42,65-129.68,105.44-209.09,113.94A283,283,0,0,1,862.78,1141.24Zm384-438.73a192.61,192.61,0,0,1,35.91,3.32,56.65,56.65,0,0,1,46,55.44c.61,206.89,136.52,329.74,270.44,344.17,117.41,12.7,261.24-57.19,313.18-291,8.82-59.25,35.6-94.54,79.64-105V681.65A186.15,186.15,0,0,1,1912,668.82c-8.76-3.48-17.52-8.52-27.6-15.86-184.06-135.6-407.35-73-554.95,30.69a17.19,17.19,0,0,1-21.29-1.22c-43.64-38.78-84.29-38.78-127.93,0a17.18,17.18,0,0,1-21.29,1.22c-147.61-103.74-370.88-166.29-554.88-30.74-10.14,7.39-18.91,12.43-27.65,15.91a186.6,186.6,0,0,1-79.91,12.83v27.77c44,10.42,70.82,45.72,79.64,105,51.92,233.72,195.62,303.61,313,291.06,133.79-14.31,269.71-136.91,270.63-343.52a56.92,56.92,0,0,1,46-55.41A215,215,0,0,1,1246.75,702.51Zm368.92,353.37c-124.54,0-217.6-127.07-217.6-240.68,0-112.71,87.45-188.43,217.6-188.43,78.48,0,146.91,25.3,187.76,69.41,34.7,37.47,50,86.64,45.4,146.15h0C1839.72,960.09,1735.12,1055.88,1615.67,1055.88Zm0-394.75c-91.21,0-183.24,47.64-183.24,154.07,0,97.39,78.37,206.32,183.24,206.32,101.91,0,191.14-81.57,198.91-181.84,3.8-49.56-8.43-90-36.36-120.15C1743.85,682.42,1684.6,661.13,1615.67,661.13ZM1831.7,841h0Zm-959,214.87c-119.45,0-224-95.79-233.16-213.54C635,782.82,650.28,733.65,685,696.18c40.85-44.11,109.28-69.41,187.76-69.41,130.15,0,217.6,75.72,217.6,188.43C1090.34,928.81,997.28,1055.88,872.74,1055.88Zm0-394.75c-68.94,0-128.18,21.29-162.55,58.4-27.93,30.16-40.17,70.59-36.36,120.16,7.77,100.26,97,181.83,198.91,181.83,104.87,0,183.24-108.93,183.24-206.32C1056,708.77,964,661.13,872.74,661.13Z"/><path class="cls-12" d="M598,2140.84h1497.6a38.83,38.83,0,0,1,38.83,38.83v302.14a38.83,38.83,0,0,1-38.83,38.83H598a85.71,85.71,0,0,1-85.71-85.71V2226.55A85.71,85.71,0,0,1,598,2140.84Z"/><g class="cls-13"><path class="cls-2" d="M2095.58,2140.84H598a85.71,85.71,0,0,0-85.72,85.71v208.37a85.28,85.28,0,0,0,10,40.16s0-.1,0-.16V2266.55A85.71,85.71,0,0,1,608,2180.84H719.4c9.36,16.86,64.39,29.8,130.9,29.8s121.54-12.94,130.9-29.8H2105.58a38.71,38.71,0,0,1,28.83,12.88v-14A38.83,38.83,0,0,0,2095.58,2140.84Z"/></g><rect class="cls-2" x="621.56" y="2140.28" width="61.06" height="380.36"/><rect class="cls-2" x="741.46" y="2140.28" width="61.06" height="380.36"/><g class="cls-4"><path class="cls-5" d="M2095.58,2420.64H598a85.72,85.72,0,0,1-85.72-85.72v100A85.72,85.72,0,0,0,598,2520.64h1497.6a38.83,38.83,0,0,0,38.83-38.83v-100A38.83,38.83,0,0,1,2095.58,2420.64Z"/></g><path class="cls-5" d="M2095.58,2540.64H598a105.84,105.84,0,0,1-105.72-105.71V2226.55A105.84,105.84,0,0,1,598,2120.84h1497.6a58.89,58.89,0,0,1,58.82,58.83v302.14A58.89,58.89,0,0,1,2095.58,2540.64ZM598,2160.84a65.79,65.79,0,0,0-65.72,65.71v208.38A65.79,65.79,0,0,0,598,2500.64h1497.6a18.85,18.85,0,0,0,18.82-18.83V2179.67a18.85,18.85,0,0,0-18.82-18.83Z"/><path class="cls-2" d="M1307,2227.6h827.41a0,0,0,0,1,0,0v208.93a0,0,0,0,1,0,0H1307a66.16,66.16,0,0,1-66.16-66.16v-76.61A66.16,66.16,0,0,1,1307,2227.6Z"/><g class="cls-4"><path class="cls-5" d="M1367,2391.53a66.17,66.17,0,0,1-66.16-66.16v-76.61a66.17,66.17,0,0,1,3.47-21,66.1,66.1,0,0,0-63.47,66v76.61a66.17,66.17,0,0,0,66.16,66.16h827.42v-45Z"/></g><path class="cls-5" d="M2134.4,2454.87H1307a84.59,84.59,0,0,1-84.49-84.5v-76.61a84.58,84.58,0,0,1,84.49-84.49H2134.4a18.34,18.34,0,0,1,18.34,18.33v208.93A18.34,18.34,0,0,1,2134.4,2454.87ZM1307,2245.94a47.88,47.88,0,0,0-47.82,47.82v76.61A47.89,47.89,0,0,0,1307,2418.2h809.08V2245.94Z"/><g class="cls-14"><path class="cls-5" d="M1933.66,2289.44c16.72-2.1,33.46-3.09,50.18-3.8L2034,2284c16.73-.62,33.46-.88,50.19-1.3s33.46-.61,50.19-.74v15c-16.73-.13-33.46-.33-50.19-.74s-33.46-.69-50.19-1.31l-50.19-1.65C1967.12,2292.52,1950.38,2291.54,1933.66,2289.44Z"/><path class="cls-5" d="M1242.41,2281.94c94.47-.61,188.94-.11,283.41.44l141.7,1.46c47.24.62,94.47,0,141.71,5.6-47.24,5.55-94.47,5-141.71,5.59l-141.7,1.46c-94.47.56-188.94,1.06-283.41.45Z"/><path class="cls-5" d="M1644,2334.57c40.87-5.53,81.74-5.34,122.61-5.84l122.61-1.43,122.61-.61c40.87-.06,81.74,0,122.62.38v15q-61.32.57-122.62.37l-122.61-.61-122.61-1.43C1725.7,2339.91,1684.83,2340.1,1644,2334.57Z"/><path class="cls-5" d="M1242.41,2327.07q38.44-.32,76.88,0l76.88.84,76.89,1.5c25.63.39,51.25.92,76.88,5.16-25.63,4.23-51.25,4.76-76.88,5.16l-76.89,1.5-76.88.84q-38.44.27-76.88,0Z"/><path class="cls-5" d="M1889.18,2379.7c20.44-3,40.87-4.3,61.31-5.08l61.3-1.55c20.44-.61,40.87-.67,61.31-.92q15.33-.24,30.65-.14c10.22,0,20.44,0,30.66.19v15c-10.22.18-20.44.17-30.66.19s-20.43,0-30.65-.14c-20.44-.25-40.87-.31-61.31-.92l-61.3-1.55C1930.05,2384,1909.62,2382.71,1889.18,2379.7Z"/><path class="cls-5" d="M1242.41,2372.2l126.3.69,126.3,1.21,126.31,1.63c42.1.52,84.2,1,126.3,4-42.1,3-84.2,3.45-126.3,4L1495,2385.3l-126.3,1.21-126.3.69Z"/></g><path class="cls-15" d="M598,2520.64h1497.6a38.83,38.83,0,0,1,38.83,38.83v302.14a38.83,38.83,0,0,1-38.83,38.83H598a85.71,85.71,0,0,1-85.71-85.71V2606.35A85.71,85.71,0,0,1,598,2520.64Z" transform="translate(2646.67 5421.08) rotate(180)"/><rect class="cls-16" x="1964.05" y="2520.08" width="61.06" height="380.36" transform="translate(3989.16 5420.52) rotate(180)"/><rect class="cls-16" x="1844.14" y="2520.08" width="61.06" height="380.36" transform="translate(3749.35 5420.52) rotate(180)"/><g class="cls-4"><path class="cls-5" d="M551.09,2800.44h1497.6a85.72,85.72,0,0,0,85.72-85.71v100a85.72,85.72,0,0,1-85.72,85.71H551.09a38.83,38.83,0,0,1-38.83-38.83v-100A38.83,38.83,0,0,0,551.09,2800.44Z"/></g><g class="cls-13"><path class="cls-2" d="M551.09,2520.64h1497.6a85.71,85.71,0,0,1,85.72,85.71v208.38a85.27,85.27,0,0,1-10,40.15c0-.05,0-.1,0-.15V2646.35a85.71,85.71,0,0,0-85.72-85.71H1927.27c-9.36,16.86-64.39,29.8-130.9,29.8s-121.54-12.94-130.9-29.8H541.09a38.69,38.69,0,0,0-28.83,12.88v-14.05A38.83,38.83,0,0,1,551.09,2520.64Z"/></g><path class="cls-5" d="M2048.69,2920.44H551.09a58.9,58.9,0,0,1-58.83-58.83V2559.47a58.9,58.9,0,0,1,58.83-58.83h1497.6a105.83,105.83,0,0,1,105.71,105.71v208.38A105.83,105.83,0,0,1,2048.69,2920.44Zm-1497.6-379.8a18.86,18.86,0,0,0-18.83,18.83v302.14a18.86,18.86,0,0,0,18.83,18.83h1497.6a65.78,65.78,0,0,0,65.71-65.71V2606.35a65.78,65.78,0,0,0-65.71-65.71Z"/><path class="cls-2" d="M578.42,2607.4h827.41a0,0,0,0,1,0,0v208.93a0,0,0,0,1,0,0H578.42a66.16,66.16,0,0,1-66.16-66.16v-76.61A66.16,66.16,0,0,1,578.42,2607.4Z" transform="translate(1918.1 5423.74) rotate(180)"/><g class="cls-4"><path class="cls-5" d="M1279.67,2771.33a66.16,66.16,0,0,0,66.16-66.16v-76.61a65.89,65.89,0,0,0-3.47-21,66.1,66.1,0,0,1,63.47,66v76.61a66.16,66.16,0,0,1-66.16,66.16H512.26v-45Z"/></g><path class="cls-5" d="M1339.67,2834.67H512.26a18.33,18.33,0,0,1-18.33-18.34V2607.4a18.33,18.33,0,0,1,18.33-18.33h827.41a84.59,84.59,0,0,1,84.5,84.49v76.61A84.6,84.6,0,0,1,1339.67,2834.67ZM530.6,2798h809.07a47.88,47.88,0,0,0,47.83-47.83v-76.61a47.87,47.87,0,0,0-47.83-47.82H530.6Z"/><g class="cls-14"><path class="cls-5" d="M713,2669.24c-16.73,2.1-33.46,3.08-50.19,3.8l-50.18,1.65c-16.73.62-33.46.89-50.19,1.31s-33.46.61-50.19.74v-15c16.73.13,33.46.32,50.19.74s33.46.68,50.19,1.3l50.18,1.66C679.55,2666.15,696.28,2667.14,713,2669.24Z"/><path class="cls-5" d="M1404.26,2676.74c-94.47.61-188.94.11-283.41-.45l-141.7-1.46c-47.24-.61-94.47,0-141.71-5.59,47.24-5.56,94.47-5,141.71-5.6l141.7-1.46c94.47-.55,188.94-1,283.41-.44Z"/><path class="cls-5" d="M1002.71,2714.37c-40.87,5.53-81.74,5.34-122.61,5.83l-122.61,1.43-122.62.62q-61.3.09-122.61-.38v-15c40.87-.39,81.74-.44,122.61-.38l122.62.61,122.61,1.43C921,2709,961.84,2708.84,1002.71,2714.37Z"/><path class="cls-5" d="M1404.26,2721.87q-38.44.32-76.88,0l-76.89-.84-76.88-1.5c-25.63-.4-51.26-.93-76.88-5.16,25.62-4.24,51.25-4.77,76.88-5.16l76.88-1.5,76.89-.85c25.62-.17,51.25-.21,76.88,0Z"/><path class="cls-5" d="M757.49,2759.5c-20.44,3-40.87,4.3-61.31,5.08l-61.31,1.55c-20.43.61-40.87.67-61.3.92q-15.33.24-30.65.14c-10.22,0-20.44,0-30.66-.19v-15c10.22-.18,20.44-.17,30.66-.19s20.43,0,30.65.14c20.43.25,40.87.31,61.3.92l61.31,1.55C716.62,2755.2,737.05,2756.49,757.49,2759.5Z"/><path class="cls-5" d="M1404.26,2767l-126.3-.68-126.31-1.22-126.3-1.64c-42.1-.51-84.2-1-126.3-4,42.1-3,84.2-3.45,126.3-4l126.3-1.63,126.31-1.21,126.3-.69Z"/></g><path class="cls-5" d="M263.33,2892.94c22-6.09,44-9.33,66-11.8s44-3.34,66-4.07c44-1.61,88-.76,132,.12s88,.73,132,.75H2111.77l66,0c22,0,44-1,66-1.48a599.3,599.3,0,0,1,66,2.15c22,2.23,44,5.93,66,14.36a8,8,0,0,1,0,15c-22,8.43-44,12.14-66,14.36a599.3,599.3,0,0,1-66,2.15c-22-.47-44-1.5-66-1.49l-66,0H659.43c-44,0-88-.19-132,.75s-88,1.73-132,.12c-22-.73-44-1.57-66-4.07s-44-5.71-66-11.8a7.78,7.78,0,0,1,0-15Z"/></g></g></svg>