<svg xmlns="http://www.w3.org/2000/svg" xmlns:xlink="http://www.w3.org/1999/xlink" viewBox="0 0 166.9 144.32"><defs><style>.cls-1{fill:#fff;}.cls-2,.cls-3,.cls-4,.cls-5{fill:none;stroke-miterlimit:10;}.cls-2,.cls-3{stroke-width:9px;}.cls-2{stroke:url(#linear-gradient);}.cls-3{stroke:url(#linear-gradient-2);}.cls-4,.cls-5{stroke-width:4px;}.cls-4{stroke:url(#linear-gradient-3);}.cls-5{stroke:url(#linear-gradient-4);}</style><linearGradient id="linear-gradient" x1="25.55" y1="82.91" x2="92.89" y2="13.18" gradientUnits="userSpaceOnUse"><stop offset="0" stop-color="#d14343"/><stop offset="0.23" stop-color="#a22d3e"/><stop offset="0.47" stop-color="#7a1a3a"/><stop offset="0.68" stop-color="#5c0c37"/><stop offset="0.87" stop-color="#4a0335"/><stop offset="1" stop-color="#440034"/></linearGradient><linearGradient id="linear-gradient-2" x1="101.94" y1="79.69" x2="152.2" y2="27.65" xlink:href="#linear-gradient"/><linearGradient id="linear-gradient-3" x1="42.25" y1="122.57" x2="53.09" y2="111.34" xlink:href="#linear-gradient"/><linearGradient id="linear-gradient-4" x1="71.27" y1="122.57" x2="82.11" y2="111.34" xlink:href="#linear-gradient"/></defs><title>Asset 3</title><g id="Layer_2" data-name="Layer 2"><g id="Layer_1-2" data-name="Layer 1"><rect class="cls-1" width="166.9" height="144.32"/><path class="cls-2" d="M13.77,21.55S44.39,41.63,33.14,71.2c-9,23.74,30.42,24,42.45,20.74C86,89.09,97.82,81.25,102.67,62.27,107,45.42,98.8,24.58,98.8,24.58"/><path class="cls-3" d="M116.4,26.93c9.78-.12,35.54-9.1,36.69,16.66.59,13-5.59,14.14-7.82,14.83-2.77.86-15.15-1.15-20.12,5.18-6.85,8.74-2.21,27.63-2.21,32"/><circle class="cls-4" cx="47.67" cy="116.96" r="5.8"/><circle class="cls-5" cx="76.69" cy="116.96" r="5.8"/></g></g></svg>