<?xml version="1.0" ?><!DOCTYPE svg  PUBLIC '-//W3C//DTD SVG 1.1//EN'  'http://www.w3.org/Graphics/SVG/1.1/DTD/svg11.dtd'><svg enable-background="new 0 0 1024 1024" height="1024px" id="Layer_1" version="1.1" viewBox="0 0 1024 1024" width="1024px" xml:space="preserve" xmlns="http://www.w3.org/2000/svg" xmlns:xlink="http://www.w3.org/1999/xlink"><g id="Background"><path d="M983.766,312.727c-25.785-60.972-62.694-115.728-109.705-162.744   C827.05,102.966,772.299,66.049,711.329,40.257C648.194,13.548,581.14,0.004,512,0c-69.104,0-136.155,13.54-199.289,40.243   c-60.969,25.787-115.721,62.699-162.735,109.71c-47.014,47.011-83.929,101.761-109.72,162.728   C13.548,375.814,0.004,442.865,0,511.97c-0.004,69.109,13.533,136.165,40.234,199.304   c25.785,60.973,62.696,115.728,109.707,162.743c47.011,47.018,101.762,83.935,162.732,109.727   c63.136,26.708,130.19,40.253,199.323,40.257h0.009c69.104,0,136.153-13.54,199.288-40.243   c60.969-25.787,115.72-62.699,162.733-109.709c47.013-47.01,83.929-101.76,109.72-162.728   c26.708-63.134,40.251-130.186,40.255-199.29C1024.004,442.921,1010.467,375.866,983.766,312.727z M512.004,976.328h-0.03   c-124.026-0.007-240.627-48.313-328.323-136.019C95.957,752.604,47.665,635.999,47.672,511.973   c0.015-256.016,208.312-464.3,464.356-464.3c124.026,0.007,240.626,48.312,328.32,136.017   c87.695,87.706,135.986,204.311,135.979,328.337C976.313,768.043,768.018,976.328,512.004,976.328z" fill="#262626"/></g><g id="Edmodo"><path d="M750.015,289.864c-35.358-37.399-89.134-55.579-164.399-55.579H438.388   c-136.375,0-208.458,64.46-208.458,186.413v128.939c0,52.095,4.876,105.234,40.248,141.036   c27.802,28.138,69.305,41.809,137.136,44.749l104.285,109.789l107.512-109.818c47.156-1.99,93.932-9.524,127.539-39.7   c32.798-29.45,47.424-74.494,47.424-146.055V420.699C794.071,364.018,779.66,321.22,750.015,289.864z M757.38,552.228   c0,123.109-43.229,150.858-154.411,153.241h0.027L512,800.263l-88.255-94.755h0.105c-129.88-2.47-157.23-39.708-157.23-153.28   V420.729c0-84.731,36.272-153.42,171.768-153.42h147.228c137.626,0,171.766,68.689,171.766,153.42L757.38,552.228L757.38,552.228z" fill="#262626"/><path d="M673.561,424.473c-11.246-35.114-44.145-60.542-82.993-60.542c-34.605,0-64.499,20.172-78.566,49.399   c-14.068-29.227-43.961-49.399-78.567-49.399c-38.85,0-71.746,25.428-82.992,60.542l-85.699-0.26v38.527l82.382,0.26   c5.815,42.484,42.229,75.219,86.311,75.219c34.606,0,64.499-20.171,78.567-49.396c14.067,29.227,43.961,49.396,78.566,49.396   c44.08,0,80.493-32.734,86.311-75.219h82.903v-38.527H673.561z M433.433,516.205c-35.911,0-65.129-29.218-65.129-65.129   c0-35.914,29.218-65.13,65.129-65.13c35.912,0,65.13,29.216,65.13,65.13C498.563,486.987,469.345,516.205,433.433,516.205z    M590.566,516.205c-35.912,0-65.129-29.218-65.129-65.129c0-35.914,29.217-65.13,65.129-65.13c35.913,0,65.129,29.216,65.129,65.13   C655.695,486.987,626.479,516.205,590.566,516.205z" fill="#262626"/><path d="M594.976,597.058c6.026,5.55,4.41,16.72-4.594,23.198c-46.481,33.515-110.282,33.515-156.764,0   c-9.005-6.479-10.62-17.648-4.594-23.198l0,0c6.034-5.589,15.727-5.225,22.374-0.488c35.938,25.912,85.264,25.912,121.2,0   C579.25,591.833,588.941,591.469,594.976,597.058L594.976,597.058z" fill="#262626"/><ellipse cx="438.295" cy="469.575" fill="#262626" rx="22.475" ry="24.308"/><ellipse cx="585.981" cy="469.575" fill="#262626" rx="22.475" ry="24.308"/></g></svg>