<svg xmlns="http://www.w3.org/2000/svg" xmlns:xlink="http://www.w3.org/1999/xlink" viewBox="0 0 365.31 270.31"><defs><style>.cls-1{isolation:isolate;}.cls-2{fill:#e1eafb;}.cls-3{fill:#dee5e9;}.cls-16,.cls-3,.cls-71{mix-blend-mode:multiply;}.cls-4{fill:url(#Áåçûìÿííûé_ãðàäèåíò_114);}.cls-5{fill:#eff0f5;}.cls-6{fill:#bfc4d5;}.cls-7{fill:#2a2a2c;}.cls-8{fill:#3a3f47;}.cls-9{fill:#3e444d;}.cls-10{fill:#fcfbfa;}.cls-11{fill:#516f83;}.cls-12{fill:#c4c8d8;}.cls-13{fill:#a0a6c0;}.cls-14{fill:#191f28;}.cls-15{fill:#ae835b;}.cls-16{fill:#becdd4;}.cls-17{fill:#c99a6b;}.cls-18{fill:#87623f;}.cls-19{fill:#d6b28e;}.cls-20{fill:#edbc8e;}.cls-21{fill:#e8b687;}.cls-22{fill:#f7cca3;}.cls-23{fill:#d1a986;}.cls-24{fill:#ad8057;}.cls-25{fill:#ebedfa;}.cls-26{fill:#e1e7f7;}.cls-27{fill:#edf5fc;}.cls-28{fill:#f0f2ff;}.cls-29{fill:#f7f8ff;}.cls-30{fill:#f2f4ff;}.cls-31{fill:#dfe3ff;}.cls-32{fill:#d5e7f7;}.cls-33{fill:#d1d7ff;}.cls-34{fill:url(#Áåçûìÿííûé_ãðàäèåíò_92);}.cls-35{fill:url(#Áåçûìÿííûé_ãðàäèåíò_92-2);}.cls-36{fill:url(#Áåçûìÿííûé_ãðàäèåíò_92-3);}.cls-37{fill:url(#Áåçûìÿííûé_ãðàäèåíò_92-4);}.cls-38{fill:url(#Áåçûìÿííûé_ãðàäèåíò_92-5);}.cls-39{fill:url(#Áåçûìÿííûé_ãðàäèåíò_92-6);}.cls-40{fill:url(#Áåçûìÿííûé_ãðàäèåíò_92-7);}.cls-41{fill:url(#Áåçûìÿííûé_ãðàäèåíò_92-8);}.cls-42{fill:url(#Áåçûìÿííûé_ãðàäèåíò_92-9);}.cls-43{fill:url(#Áåçûìÿííûé_ãðàäèåíò_92-10);}.cls-44{fill:url(#Áåçûìÿííûé_ãðàäèåíò_92-11);}.cls-45{fill:url(#Áåçûìÿííûé_ãðàäèåíò_92-12);}.cls-46{fill:url(#Áåçûìÿííûé_ãðàäèåíò_92-13);}.cls-47{fill:url(#Áåçûìÿííûé_ãðàäèåíò_92-14);}.cls-48{fill:url(#Áåçûìÿííûé_ãðàäèåíò_92-15);}.cls-49{fill:url(#Áåçûìÿííûé_ãðàäèåíò_92-16);}.cls-50{fill:#554d4e;}.cls-51{fill:#6b6164;}.cls-52{fill:#85787c;}.cls-53{fill:#493f41;}.cls-54{fill:#dcdbe5;}.cls-55{fill:#98d19c;}.cls-56{fill:#a4e2a9;}.cls-57{fill:#9cd6a1;}.cls-58{fill:#d0ead2;}.cls-59{fill:#aef0b3;}.cls-60{fill:#bdc2ff;}.cls-61{fill:#ffc536;}.cls-62{fill:#fff;}.cls-63{fill:#ffef86;}.cls-64{fill:#ff4c4a;}.cls-65{fill:#ff7270;}.cls-66{fill:url(#Áåçûìÿííûé_ãðàäèåíò_2);}.cls-67{fill:url(#Áåçûìÿííûé_ãðàäèåíò_51);}.cls-68{fill:#869741;}.cls-69{fill:url(#Áåçûìÿííûé_ãðàäèåíò_99);}.cls-70{fill:#7dd171;}.cls-70,.cls-75{mix-blend-mode:screen;}.cls-71{fill:#d1e89b;}.cls-72{fill:#d9af84;}.cls-73{fill:#ebcbab;}.cls-74{fill:#9c754e;}.cls-75{fill:#54493e;}</style><linearGradient id="Áåçûìÿííûé_ãðàäèåíò_114" x1="3993.99" y1="156.39" x2="4224.21" y2="156.39" gradientTransform="translate(-3922.76)" gradientUnits="userSpaceOnUse"><stop offset="0" stop-color="#c4c8d8"/><stop offset="0.02" stop-color="#c4c8d8"/><stop offset="0.28" stop-color="#c4c8d8"/><stop offset="0.3" stop-color="#c0c5d6"/><stop offset="0.32" stop-color="#b6bace"/><stop offset="0.34" stop-color="#a3a9c2"/><stop offset="0.34" stop-color="#a0a6c0"/><stop offset="0.99" stop-color="#a0a6c0"/><stop offset="0.99" stop-color="#b4b9cd"/><stop offset="1" stop-color="#c0c4d5"/><stop offset="1" stop-color="#c4c8d8"/></linearGradient><linearGradient id="Áåçûìÿííûé_ãðàäèåíò_92" x1="108.41" y1="84.92" x2="281.99" y2="258.5" gradientTransform="matrix(-1, 0, 0, 1, 385.05, 0)" gradientUnits="userSpaceOnUse"><stop offset="0.17" stop-color="#caceff"/><stop offset="0.52" stop-color="#ccd6fd"/><stop offset="1" stop-color="#ceddfb"/></linearGradient><linearGradient id="Áåçûìÿííûé_ãðàäèåíò_92-2" x1="138.78" y1="54.56" x2="312.35" y2="228.14" xlink:href="#Áåçûìÿííûé_ãðàäèåíò_92"/><linearGradient id="Áåçûìÿííûé_ãðàäèåíò_92-3" x1="168.16" y1="25.18" x2="341.74" y2="198.76" xlink:href="#Áåçûìÿííûé_ãðàäèåíò_92"/><linearGradient id="Áåçûìÿííûé_ãðàäèåíò_92-4" x1="189.38" y1="3.96" x2="362.96" y2="177.54" xlink:href="#Áåçûìÿííûé_ãðàäèåíò_92"/><linearGradient id="Áåçûìÿííûé_ãðàäèåíò_92-5" x1="199.05" y1="-5.71" x2="372.63" y2="167.87" xlink:href="#Áåçûìÿííûé_ãðàäèåíò_92"/><linearGradient id="Áåçûìÿííûé_ãðàäèåíò_92-6" x1="195.75" y1="-2.41" x2="369.32" y2="171.17" xlink:href="#Áåçûìÿííûé_ãðàäèåíò_92"/><linearGradient id="Áåçûìÿííûé_ãðàäèåíò_92-7" x1="179.91" y1="13.42" x2="353.49" y2="187" xlink:href="#Áåçûìÿííûé_ãðàäèåíò_92"/><linearGradient id="Áåçûìÿííûé_ãðàäèåíò_92-8" x1="154.05" y1="39.28" x2="327.63" y2="212.86" xlink:href="#Áåçûìÿííûé_ãðàäèåíò_92"/><linearGradient id="Áåçûìÿííûé_ãðàäèåíò_92-9" x1="122.16" y1="71.18" x2="295.74" y2="244.76" xlink:href="#Áåçûìÿííûé_ãðàäèåíò_92"/><linearGradient id="Áåçûìÿííûé_ãðàäèåíò_92-10" x1="89.22" y1="104.11" x2="262.8" y2="277.69" xlink:href="#Áåçûìÿííûé_ãðàäèåíò_92"/><linearGradient id="Áåçûìÿííûé_ãðàäèåíò_92-11" x1="61.01" y1="132.32" x2="234.59" y2="305.9" xlink:href="#Áåçûìÿííûé_ãðàäèåíò_92"/><linearGradient id="Áåçûìÿííûé_ãðàäèåíò_92-12" x1="41.73" y1="151.61" x2="215.31" y2="325.19" xlink:href="#Áåçûìÿííûé_ãðàäèåíò_92"/><linearGradient id="Áåçûìÿííûé_ãðàäèåíò_92-13" x1="34.19" y1="159.15" x2="207.76" y2="332.73" xlink:href="#Áåçûìÿííûé_ãðàäèåíò_92"/><linearGradient id="Áåçûìÿííûé_ãðàäèåíò_92-14" x1="40.1" y1="153.24" x2="213.68" y2="326.82" xlink:href="#Áåçûìÿííûé_ãðàäèåíò_92"/><linearGradient id="Áåçûìÿííûé_ãðàäèåíò_92-15" x1="58" y1="135.34" x2="231.58" y2="308.91" xlink:href="#Áåçûìÿííûé_ãðàäèåíò_92"/><linearGradient id="Áåçûìÿííûé_ãðàäèåíò_92-16" x1="82.66" y1="110.67" x2="256.24" y2="284.25" xlink:href="#Áåçûìÿííûé_ãðàäèåíò_92"/><linearGradient id="Áåçûìÿííûé_ãðàäèåíò_2" x1="84.3" y1="214.53" x2="129.11" y2="176.54" gradientTransform="matrix(-1, 0, 0, 1, 385.05, 0)" gradientUnits="userSpaceOnUse"><stop offset="0.09" stop-color="#379ed6"/><stop offset="0.3" stop-color="#58aee5"/><stop offset="0.54" stop-color="#76bdf3"/><stop offset="0.75" stop-color="#88c6fc"/><stop offset="0.9" stop-color="#8fc9ff"/></linearGradient><linearGradient id="Áåçûìÿííûé_ãðàäèåíò_51" x1="86.25" y1="212.88" x2="127.23" y2="178.13" gradientTransform="matrix(-0.38, -0.92, -0.92, 0.38, 499.22, 219.46)" gradientUnits="userSpaceOnUse"><stop offset="0.09" stop-color="#7282b5"/><stop offset="0.23" stop-color="#7489c8"/><stop offset="0.5" stop-color="#7695e6"/><stop offset="0.73" stop-color="#779cf8"/><stop offset="0.9" stop-color="#789eff"/></linearGradient><linearGradient id="Áåçûìÿííûé_ãðàäèåíò_99" x1="88.91" y1="214.62" x2="127.23" y2="172.67" gradientTransform="matrix(-1, 0, 0, 1, 385.05, 0)" gradientUnits="userSpaceOnUse"><stop offset="0.09" stop-color="#7cab71"/><stop offset="0.23" stop-color="#86be78"/><stop offset="0.5" stop-color="#95dc84"/><stop offset="0.73" stop-color="#9fee8b"/><stop offset="0.9" stop-color="#a2f58e"/></linearGradient></defs><title>Asset 1</title><g class="cls-1"><g id="Layer_2" data-name="Layer 2"><g id="Layer_1-2" data-name="Layer 1"><ellipse class="cls-2" cx="182.66" cy="164.85" rx="182.66" ry="105.45" transform="translate(-0.89 0.99) rotate(-0.31)"/><path class="cls-3" d="M141.05,227.43l-66.3-38.28c-5.22-3-4.56-8.32,1.47-11.8l135-77.93c6-3.48,15.21-3.86,20.43-.85l66.3,38.28c5.22,3,4.56,8.32-1.46,11.8l-135,77.93C155.46,230.06,146.27,230.44,141.05,227.43Z"/><path class="cls-4" d="M301.45,128.08l-4.18,1.78L231.63,92c-5.22-3-14.41-2.63-20.43.85l-135,77.93c-.27.15-.51.31-.75.47L71.23,170v7.54h0c0,1.88,1.19,3.68,3.51,5l66.3,38.28c5.22,3,14.41,2.63,20.44-.85l135-77.93c3.24-1.87,4.91-4.27,5-6.57h0Z"/><path class="cls-5" d="M141.05,213.52l-66.3-38.28c-5.22-3-4.56-8.32,1.47-11.8l135-77.93c6-3.47,15.21-3.85,20.43-.84L297.93,123c5.22,3,4.56,8.32-1.46,11.79l-135,77.93C155.46,216.15,146.27,216.53,141.05,213.52Z"/><path class="cls-6" d="M296.47,134l-135,77.93c-6,3.48-15.22,3.86-20.44.85L74.75,174.5c-2.2-1.27-3.35-3-3.49-4.74-.15,2.05,1,4,3.49,5.48l66.3,38.28c5.22,3,14.41,2.63,20.44-.85l135-77.93c3.47-2,5.15-4.62,5-7.05C301.26,129.9,299.59,132.2,296.47,134Z"/><path class="cls-7" d="M297.2,130.83a9.86,9.86,0,0,1-3.32,3l-32.87,19-41.83,24.15-59.35,34.26c-5,2.92-12.73,3.24-17.09.72l-60.59-35-4.57-2.64c-4.36-2.52-3.8-7,1.24-9.87L99,152.76l38-21.93L189,100.76,212.85,87c5-2.91,12.74-3.22,17.1-.71l25,14.46,40.12,23.15C298.14,125.68,298.8,128.37,297.2,130.83Z"/><path class="cls-8" d="M296.32,130.25a5.41,5.41,0,0,1-.43.58,9.08,9.08,0,0,1-2.53,2.06L259,152.76l-4.76,2.74-37.08,21.4-6.37,3.68-30.92,17.84L159.3,210.27a18.8,18.8,0,0,1-9.15,2.29,14,14,0,0,1-6.89-1.59l-13.58-7.83L84.22,176.9l-6.11-3.51c-1.58-.93-2.42-2.1-2.42-3.38,0-1.67,1.34-3.36,3.64-4.72l21.72-12.53,38-21.93,4-2.32,48.09-27.76,6.88-4,15.34-8.86a18.55,18.55,0,0,1,9.17-2.27,16,16,0,0,1,5.07.75,9,9,0,0,1,1.84.79l23.44,13.55L263,106.57l31.61,18.24a4.51,4.51,0,0,1,2.35,2.7A3.43,3.43,0,0,1,296.32,130.25Z"/><path class="cls-9" d="M198,96.79,179.82,198.42,159.3,210.27a18.8,18.8,0,0,1-9.15,2.29,14,14,0,0,1-6.89-1.59l-13.58-7.83,13.38-74.63,48.09-27.76Z"/><path class="cls-9" d="M263,106.57l-8.77,48.93-37.08,21.4-6.37,3.68,16.87-94.17a9,9,0,0,1,1.84.79l23.44,13.55Z"/><path class="cls-10" d="M289.69,131.39a4.69,4.69,0,0,1-.4.54,8.45,8.45,0,0,1-2.38,1.94l-32.34,18.67-4.47,2.58-34.85,20.11-6,3.46-29.05,16.76L158.54,208a17.53,17.53,0,0,1-8.59,2.15,13.21,13.21,0,0,1-6.48-1.49l-12.76-7.36L88,176.6l-5.76-3.3c-1.48-.87-2.27-2-2.27-3.18,0-1.56,1.26-3.16,3.43-4.44l22.79-13.14,35.7-20.61,3.78-2.18,45.19-26.08,6.46-3.73,14.43-8.33a17.49,17.49,0,0,1,8.61-2.13,15,15,0,0,1,4.77.71,8.11,8.11,0,0,1,1.72.74l10.23,6.38-.23,6.52,22.39,12.94,9.7-.6,19.11,10.1a4.26,4.26,0,0,1,2.21,2.54A3.24,3.24,0,0,1,289.69,131.39Z"/><path class="cls-7" d="M263.82,113.79l-16.34-9.43c-.3-.17-.26-.47.09-.67h0a1.29,1.29,0,0,1,1.16,0l16.34,9.43c.3.17.26.48-.09.68h0A1.29,1.29,0,0,1,263.82,113.79Z"/><path class="cls-8" d="M247.36,104.25a.56.56,0,0,1,.21-.19,1.29,1.29,0,0,1,1.16,0l16.34,9.43a.45.45,0,0,1,.12.12.31.31,0,0,0-.12-.49l-16.34-9.43a1.29,1.29,0,0,0-1.16,0C247.29,103.85,247.22,104.07,247.36,104.25Z"/><path class="cls-8" d="M243.23,101a3.9,3.9,0,0,1-3.55,0,1.08,1.08,0,0,1,0-2,3.93,3.93,0,0,1,3.55,0C244.21,99.49,244.21,100.41,243.23,101Z"/><path class="cls-11" d="M242.58,100.59a2.48,2.48,0,0,1-2.25,0,.69.69,0,0,1,0-1.3,2.49,2.49,0,0,1,2.24,0C243.19,99.65,243.2,100.24,242.58,100.59Z"/><path class="cls-7" d="M246.62,103.22a2.78,2.78,0,0,1-2.51,0,.76.76,0,0,1,0-1.45,2.78,2.78,0,0,1,2.51,0A.77.77,0,0,1,246.62,103.22Z"/><path class="cls-12" d="M286.14,146.54l-9.68,5.6c-.79.45-1.44,0-1.44-1.09h0a3.48,3.48,0,0,1,1.44-2.75l9.68-5.59c.8-.46,1.44,0,1.44,1.09h0A3.42,3.42,0,0,1,286.14,146.54Z"/><path class="cls-13" d="M286.88,147l-9.69,5.59c-.79.46-1.44,0-1.44-1.09h0a3.44,3.44,0,0,1,1.44-2.74l9.69-5.6c.79-.45,1.43,0,1.43,1.09h0A3.47,3.47,0,0,1,286.88,147Z"/><path class="cls-12" d="M224.49,182.11l-9.69,5.6c-.79.45-1.44,0-1.44-1.09h0a3.44,3.44,0,0,1,1.44-2.74l9.69-5.6c.79-.46,1.43,0,1.43,1.09h0A3.43,3.43,0,0,1,224.49,182.11Z"/><path class="cls-13" d="M225.22,182.57l-9.69,5.59c-.79.46-1.44,0-1.44-1.08h0a3.46,3.46,0,0,1,1.44-2.75l9.69-5.59c.79-.46,1.43,0,1.43,1.08h0A3.45,3.45,0,0,1,225.22,182.57Z"/><path class="cls-13" d="M112.83,200.87c0,.9-.56,1.32-1.24.93L103.27,197a3,3,0,0,1-1.23-2.36c0-.9.55-1.33,1.23-.94l.82.48,7.5,4.32a2.8,2.8,0,0,1,1.15,1.72A2.47,2.47,0,0,1,112.83,200.87Z"/><path class="cls-14" d="M112.74,200.23l-7.5-4.34a2.8,2.8,0,0,1-1.15-1.7l7.5,4.32A2.8,2.8,0,0,1,112.74,200.23Z"/><polygon class="cls-15" points="122.24 119.02 122.55 119.9 136.71 115.54 181.14 89.9 122.24 119.02"/><polygon class="cls-15" points="181.15 89.91 227.55 116.69 246.74 117.9 247.01 116.94 181.15 89.91"/><polygon class="cls-16" points="211.58 128.12 183.11 180.56 213.56 180.56 258 154.92 211.58 128.12"/><polygon class="cls-17" points="183.11 180.56 136.71 153.77 136.71 114.56 183.11 141.35 183.11 180.56"/><polygon class="cls-18" points="136.71 114.56 183.11 141.35 158.56 127.96 136.71 114.56"/><polygon class="cls-15" points="183.11 180.56 227.56 154.89 227.56 115.69 183.11 141.35 183.11 180.56"/><path class="cls-18" d="M185.42,176.9l10-5.76V159.69l-10,5.76Zm9.31-6.14-8.66,5v-9.93l8.66-5Z"/><polygon class="cls-18" points="189.3 173.23 191.5 171.96 191.5 166.2 189.3 167.47 189.3 173.23"/><polygon class="cls-18" points="187.14 169.81 193.66 166.05 190.4 164 187.14 169.81"/><polygon class="cls-19" points="242.02 136.9 183.11 141.35 183.11 142.33 197.26 163.04 241.7 137.41 242.02 136.9"/><polygon class="cls-19" points="117.61 138.8 164.01 165.59 183.11 142.32 183.11 141.35 117.25 138.26 117.61 138.8"/><polygon class="cls-20" points="227.55 115.72 183.11 141.35 197.58 162.54 242.02 136.9 227.55 115.72"/><polygon class="cls-20" points="166.68 93.38 122.24 119.02 136.71 114.56 181.14 88.92 166.68 93.38"/><polygon class="cls-21" points="181.13 88.92 136.69 114.56 183.11 141.35 227.55 115.72 181.13 88.92"/><polygon class="cls-17" points="226.39 115.69 181.15 89.57 137.88 114.53 183.13 140.65 226.39 115.69"/><polygon class="cls-22" points="117.25 138.26 163.65 165.04 183.11 141.35 136.71 114.56 117.25 138.26"/><polygon class="cls-21" points="181.15 88.93 227.55 115.72 247.01 116.94 200.6 90.16 181.15 88.93"/><polygon class="cls-23" points="158.65 127.39 159.03 127.6 159.18 127.51 158.8 127.31 158.65 127.39"/><polygon class="cls-24" points="191.82 135.64 183.13 140.65 172.46 134.49 181.15 129.48 191.82 135.64"/><polygon class="cls-15" points="181.15 129.48 181.15 89.57 137.88 114.53 172.46 134.49 181.15 129.48"/><polygon class="cls-25" points="149.71 121.37 183.13 140.65 203.34 128.99 208.37 126.08 213.68 123.01 209.35 122.04 202.43 116.25 194.08 113.6 188.78 109.11 181.14 106.62 176.83 107.42 172.46 110.17 166.21 112.03 160.38 114.57 155.23 118.86 149.71 121.37"/><path class="cls-26" d="M199.88,121h3a2,2,0,1,1,0,4h-3a2,2,0,1,1,0-4Z"/><path class="cls-26" d="M187,134.55l-2.71-1.38a2,2,0,0,1,1.83-3.57l2.71,1.38a2,2,0,0,1-1.83,3.57Z"/><path class="cls-26" d="M177.57,118.35l-1.76,2.48a2,2,0,0,1-3.27-2.33l1.77-2.48a2,2,0,1,1,3.26,2.33Z"/><path class="cls-26" d="M165.1,124l-2.71-1.38a2,2,0,1,1,1.83-3.57l2.71,1.38A2,2,0,0,1,165.1,124Z"/><path class="cls-27" d="M179.51,132.88l-3,.56a2,2,0,1,1-.74-3.94l3-.56a2,2,0,0,1,.74,3.94Z"/><path class="cls-27" d="M185.21,122.51l2.32,2a2,2,0,1,1-2.6,3.06l-2.32-2a2,2,0,0,1,2.6-3.06Z"/><path class="cls-27" d="M180.45,107.1l2.32,2a2,2,0,1,1-2.6,3.05l-2.32-2a2,2,0,1,1,2.6-3.05Z"/><path class="cls-28" d="M168.47,122.68,171,121a2,2,0,0,1,2.16,3.38l-2.57,1.64a2,2,0,0,1-2.16-3.38Z"/><path class="cls-28" d="M164.39,123.36l2.09,2.2a2,2,0,1,1-2.9,2.76l-2.1-2.2a2,2,0,1,1,2.91-2.76Z"/><path class="cls-28" d="M172.7,111.16l2.56-1.64a2,2,0,1,1,2.16,3.38l-2.56,1.64a2,2,0,0,1-2.16-3.38Z"/><path class="cls-28" d="M195.63,124.85l3-.15a2,2,0,0,1,.2,4l-3,.15a2,2,0,0,1-.2-4Z"/><path class="cls-28" d="M186.13,109.76l3-.15a2,2,0,0,1,.2,4l-3,.15a2,2,0,0,1-.2-4Z"/><path class="cls-29" d="M166.64,113.2l2.67,1.46a2,2,0,0,1-1.92,3.52l-2.67-1.46a2,2,0,1,1,1.92-3.52Z"/><path class="cls-29" d="M182.66,134l3,.52a2,2,0,1,1-.68,3.95l-3-.52a2,2,0,1,1,.69-4Z"/><path class="cls-29" d="M202.24,126.85a2,2,0,0,0,1.1,2.14l5-2.91a2,2,0,0,0-.81-.35l-3-.51A2,2,0,0,0,202.24,126.85Z"/><path class="cls-29" d="M155.25,118.5l3,.52a2,2,0,0,1-.69,4l-3-.52a2,2,0,0,1,.69-4Z"/><path class="cls-29" d="M185.3,113.8l3,.52a2,2,0,1,1-.69,4l-3-.52a2,2,0,1,1,.69-4Z"/><path class="cls-29" d="M194.75,115.41l3-.15a2,2,0,0,1,.2,4l-3,.15a2,2,0,1,1-.2-4Z"/><path class="cls-30" d="M189.7,124.15l2.57-1.64a2,2,0,1,1,2.16,3.38l-2.57,1.64a2,2,0,0,1-2.16-3.38Z"/><path class="cls-30" d="M183.51,122.12l-2.92-.85a2,2,0,0,1,1.13-3.85l2.92.85a2,2,0,1,1-1.13,3.85Z"/><path class="cls-30" d="M177.55,128.73l-2.92-.86a2,2,0,1,1,1.12-3.85l2.92.86a2,2,0,0,1-1.12,3.85Z"/><path class="cls-30" d="M177.33,114.9l-1.48-2.66a2,2,0,0,1,3.51-1.95l1.48,2.66a2,2,0,0,1-3.51,2Z"/><path class="cls-30" d="M206.9,122.26l-2.17-2.13a2,2,0,0,1,2.81-2.86l2.17,2.14a2,2,0,0,1-2.81,2.85Z"/><path class="cls-30" d="M169.89,131.3l-2.92-.86a2,2,0,0,1,1.12-3.85l2.92.86a2,2,0,1,1-1.12,3.85Z"/><path class="cls-31" d="M243.84,141.36h3a2,2,0,0,1,0,4h-3a2,2,0,0,1,0-4Z"/><path class="cls-31" d="M133.62,172.16l-3-.58a2,2,0,0,1,.77-3.93l3,.58a2,2,0,1,1-.76,3.93Z"/><path class="cls-31" d="M175.11,193.17l-2.71-1.38a2,2,0,1,1,1.82-3.57l2.71,1.38a2,2,0,0,1-1.82,3.57Z"/><path class="cls-32" d="M197.25,184.69l-3,.56a2,2,0,0,1-.73-3.95l3-.56a2,2,0,1,1,.73,3.95Z"/><path class="cls-32" d="M161.07,178.07l2.32,2a2,2,0,1,1-2.6,3.06l-2.31-2a2,2,0,0,1,2.59-3.06Z"/><path class="cls-28" d="M179.72,190.93l2.57-1.63a2,2,0,0,1,2.16,3.38l-2.57,1.63a2,2,0,0,1-2.16-3.38Z"/><path class="cls-31" d="M212.59,172l-3,.56a2,2,0,0,1-.74-4l3-.56a2,2,0,0,1,.74,4Z"/><path class="cls-28" d="M220.28,166.26l2.32,2a2,2,0,0,1-2.6,3.05l-2.32-2a2,2,0,1,1,2.6-3.05Z"/><path class="cls-28" d="M184.91,184.2l2.56-1.63a2,2,0,0,1,2.16,3.38l-2.56,1.63a2,2,0,1,1-2.16-3.38Z"/><path class="cls-28" d="M143.81,175,141,176.25a2,2,0,0,1-1.61-3.67l2.79-1.22a2,2,0,0,1,1.61,3.67Z"/><path class="cls-31" d="M147,184.8l-2.74-1.31a2,2,0,0,1,1.73-3.62l2.74,1.31A2,2,0,1,1,147,184.8Z"/><path class="cls-28" d="M237.63,147.58l3-.15a2,2,0,1,1,.2,4l-3,.15a2,2,0,0,1-.2-4Z"/><path class="cls-33" d="M249.36,147.72l2.56-1.63a2,2,0,0,1,2.16,3.38l-2.56,1.63a2,2,0,1,1-2.16-3.38Z"/><path class="cls-33" d="M134.76,179.37h-3a2,2,0,1,1,0-4h3a2,2,0,1,1,0,4Z"/><path class="cls-34" d="M275.7,100.48l-.27-.16,3.88-2.59a175.44,175.44,0,0,0-21.81-9.09l-3,3A169.75,169.75,0,0,1,275.7,100.48Z"/><path class="cls-35" d="M201.07,81.16c1.49.09,3,.22,4.45.37l4.42.42,4.39.55,2.2.27,2.16.34,4.34.67,4.27.78c2.88.49,5.63,1.17,8.44,1.76L238,83.13c-2.93-.61-5.8-1.32-8.79-1.83l-4.46-.82-4.52-.69L218,79.44l-2.28-.29-4.57-.57-4.62-.44c-1.53-.16-3.07-.29-4.63-.38Z"/><path class="cls-36" d="M144.7,83.59,149,82.9l4.4-.56c2.91-.42,5.9-.63,8.85-1,5.94-.45,11.91-.83,17.91-.85l-.09-3.43c-6.25,0-12.47.42-18.66.89-3.08.33-6.18.55-9.22,1l-4.58.59-4.52.71Z"/><path class="cls-37" d="M94.35,98.55c2.39-1.06,4.72-2.16,7.22-3.12,1.24-.49,2.45-1,3.71-1.48l3.82-1.38c1.25-.48,2.56-.91,3.87-1.32L116.91,90l4-1.16c1.34-.4,2.69-.78,4.08-1.11l-2.41-3.13c-1.45.35-2.85.75-4.25,1.16l-4.2,1.2-4.1,1.33c-1.38.43-2.73.88-4,1.38l-4,1.44c-1.31.49-2.57,1-3.86,1.54-2.61,1-5,2.15-7.52,3.25Z"/><path class="cls-38" d="M58,123.66A102.93,102.93,0,0,1,79,106.8l-4.34-2.33A107.13,107.13,0,0,0,52.78,122Z"/><path class="cls-39" d="M41.51,154.91a55.47,55.47,0,0,1,7.9-20.22l-5.58-1.16a57.57,57.57,0,0,0-8.23,21.08Z"/><path class="cls-40" d="M47.46,187.33A51.8,51.8,0,0,1,41.07,167l-5.93.2a54,54,0,0,0,6.65,21.2Z"/><path class="cls-41" d="M74.93,215.72a108.57,108.57,0,0,1-10.85-8.23,86.15,86.15,0,0,1-8.87-9L49.87,200a90.6,90.6,0,0,0,9.25,9.37A112.24,112.24,0,0,0,70.42,218Z"/><path class="cls-42" d="M119.48,235.61c-5.4-1.47-10.53-3.26-15.56-5.12s-9.79-4-14.25-6.26l-3.9,2.6c4.65,2.39,9.72,4.5,14.85,6.53s10.59,3.79,16.22,5.34Z"/><path class="cls-43" d="M174.09,243.78a236.88,236.88,0,0,1-35.25-3.69L137,243.36a245.72,245.72,0,0,0,36.72,3.84Z"/><path class="cls-44" d="M230,239a236.69,236.69,0,0,1-35,4.56l.53,3.42a248.21,248.21,0,0,0,36.5-4.75Z"/><path class="cls-45" d="M278.32,221.88A166,166,0,0,1,249.13,234l2.8,3a173.06,173.06,0,0,0,30.42-12.64Z"/><path class="cls-46" d="M311.38,195.31c-.57.8-1.23,1.58-1.91,2.36l-2,2.32-2.2,2.27c-.72.77-1.47,1.52-2.29,2.24l-2.39,2.21c-.82.72-1.71,1.42-2.56,2.14-1.67,1.44-3.58,2.79-5.41,4.16l4.63,2.14c1.91-1.43,3.89-2.83,5.63-4.34.89-.74,1.81-1.47,2.67-2.23l2.49-2.3c.86-.76,1.64-1.54,2.39-2.33l2.29-2.37,2.1-2.43a30,30,0,0,0,2-2.45Z"/><path class="cls-47" d="M323.82,163.45a50.19,50.19,0,0,1-1.49,10.34c-.55,1.71-.92,3.43-1.64,5.11l-1,2.54L318.53,184l5.72.91,1.23-2.62,1-2.64c.75-1.75,1.14-3.55,1.71-5.32a52.4,52.4,0,0,0,1.55-10.78Z"/><path class="cls-48" d="M313.8,131.38c1,1.63,2.19,3.22,3,4.88l1.36,2.46,1.16,2.51.58,1.25.47,1.27.95,2.53.74,2.56a19.51,19.51,0,0,1,.63,2.56l5.9-.45a22.62,22.62,0,0,0-.66-2.67l-.78-2.67-1-2.64-.5-1.32-.6-1.3-1.21-2.61-1.42-2.57c-.88-1.73-2.1-3.39-3.16-5.08Z"/><path class="cls-49" d="M289.24,108.29a104.18,104.18,0,0,1,15.39,12.28l5.14-1.75a108.85,108.85,0,0,0-15.16-12.22l-4.45,2.22Z"/><path class="cls-3" d="M87.94,219.4c5.76,3.33,5.73,8.74-.07,12.1s-15.19,3.36-21,0-5.73-8.74.07-12.1S82.17,216.07,87.94,219.4Z"/><path class="cls-50" d="M91.25,200.2l1.25,20.88h0c-.1,2.16-1.55,4.3-4.41,5.95-5.9,3.41-15.45,3.43-21.32,0-2.7-1.56-4.09-3.57-4.29-5.62h-.09L63.6,200.8Z"/><ellipse class="cls-51" cx="77.43" cy="200.8" rx="13.82" ry="7.98" transform="translate(-1.09 0.42) rotate(-0.31)"/><ellipse class="cls-52" cx="77.43" cy="200.5" rx="13.18" ry="7.61" transform="translate(-1.09 0.42) rotate(-0.31)"/><path class="cls-53" d="M85.45,197.62v2.74h0a4.09,4.09,0,0,1-2.35,3.17,12.55,12.55,0,0,1-11.34,0,4.07,4.07,0,0,1-2.29-3h0V198Z"/><path class="cls-54" d="M84.06,191.37c3.64,2.11,3.63,5.53,0,7.64a14.62,14.62,0,0,1-13.23,0c-3.64-2.11-3.63-5.53,0-7.64A14.62,14.62,0,0,1,84.06,191.37Z"/><path class="cls-50" d="M88.09,190.16v5.15h0c-.07,1.53-1.1,3-3.12,4.21a16.69,16.69,0,0,1-15.08,0,5.44,5.44,0,0,1-3-4h-.06v-4.9Z"/><path class="cls-51" d="M85,185.44c4.15,2.39,4.13,6.29,0,8.7a16.69,16.69,0,0,1-15.08,0c-4.15-2.4-4.13-6.29,0-8.71A16.66,16.66,0,0,1,85,185.44Z"/><path class="cls-52" d="M84.69,185.55c3.93,2.27,3.91,6,0,8.25a15.81,15.81,0,0,1-14.29,0c-3.93-2.27-3.91-6,0-8.25A15.81,15.81,0,0,1,84.69,185.55Z"/><ellipse class="cls-3" cx="103.04" cy="234.02" rx="8.47" ry="4.89" transform="translate(-1.27 0.56) rotate(-0.31)"/><path class="cls-50" d="M111.26,219.66l.24,11.47h0a4.27,4.27,0,0,1-2.47,3.34,13.2,13.2,0,0,1-12,0,4.33,4.33,0,0,1-2.42-3.16h0l.23-11.58Z"/><path class="cls-51" d="M108.87,216.4c3.2,1.85,3.19,4.86,0,6.72a12.87,12.87,0,0,1-11.64,0c-3.2-1.85-3.19-4.86,0-6.72A12.85,12.85,0,0,1,108.87,216.4Z"/><path class="cls-52" d="M108.6,216.38c3.06,1.77,3,4.64,0,6.41a12.3,12.3,0,0,1-11.1,0c-3-1.76-3-4.63,0-6.41A12.28,12.28,0,0,1,108.6,216.38Z"/><path class="cls-53" d="M107.81,217.88v1.63h0a2.42,2.42,0,0,1-1.4,1.89,7.47,7.47,0,0,1-6.75,0,2.39,2.39,0,0,1-1.36-1.78h0v-1.52Z"/><path class="cls-54" d="M107,214.16c2.16,1.25,2.15,3.29,0,4.55a8.67,8.67,0,0,1-7.87,0c-2.17-1.25-2.16-3.28,0-4.54A8.72,8.72,0,0,1,107,214.16Z"/><path class="cls-50" d="M109.38,213.44v3.07h0a3.24,3.24,0,0,1-1.86,2.5,9.94,9.94,0,0,1-9,0,3.22,3.22,0,0,1-1.8-2.37h0v-2.92Z"/><path class="cls-51" d="M107.54,210.63c2.47,1.43,2.45,3.75,0,5.18a9.94,9.94,0,0,1-9,0c-2.47-1.43-2.45-3.75,0-5.18A9.9,9.9,0,0,1,107.54,210.63Z"/><path class="cls-52" d="M107.36,210.69c2.34,1.36,2.33,3.55,0,4.91a9.4,9.4,0,0,1-8.5,0c-2.34-1.35-2.33-3.55,0-4.91A9.4,9.4,0,0,1,107.36,210.69Z"/><path class="cls-55" d="M238.89.05a.65.65,0,0,0-.89.57c0,14.62.91,22.88.91,37.87a28.08,28.08,0,0,0,6.8,9.63,28,28,0,0,0,8.93,5.31c4.33,1.67,9.1,2.71,14.17,4.14,7.74,2.2,13.3,3.87,18.34,6.29,1.38.65,2.72,1.38,4.06,2.17,3.9,2.32,7.3,5.9,12,10.67.15.14.73,0,.9-.11V38.13a57.49,57.49,0,0,0-12.85-10.75,40.39,40.39,0,0,0-4.06-2.16c-4.82-2.27-10.2-3.88-17.66-5.95-5.33-1.49-10.34-2.47-14.85-4.2C248.21,12.64,242.79,8.78,238.89.05Z"/><path class="cls-56" d="M238,.62c0,15.38,0,23.07,0,38.45a28.2,28.2,0,0,0,6.79,9.63A28.1,28.1,0,0,0,253.75,54c4.32,1.67,9.1,2.71,14.17,4.14,7.74,2.2,13.3,3.87,18.34,6.29,1.37.65,2.72,1.38,4.06,2.17A74.09,74.09,0,0,1,303.16,76.7V38.24A68.19,68.19,0,0,0,290.32,28a42.68,42.68,0,0,0-4.06-2.16c-4.82-2.27-10.2-3.88-17.66-5.95-5.34-1.49-10.34-2.47-14.85-4.21C247.32,13.22,241.89,9.36,238,.62Z"/><path class="cls-57" d="M238,.62c0,15.38,0,23.07,0,38.45a57.34,57.34,0,0,0,6.79,9.63A28.1,28.1,0,0,0,253.75,54V15.64C247.32,13.22,241.89,9.36,238,.62Z"/><path class="cls-55" d="M274.62,54.76a10.6,10.6,0,0,0,4.77-2.26c2.56-2.14,4-5.4,4-9.49,0-8.32-5.64-16.81-12.57-18a10.87,10.87,0,0,0-9,2.29c-2.56,2.14-4,5.41-4,9.5,0,8.31,5.64,16.81,12.57,18A11.38,11.38,0,0,0,274.62,54.76Zm-8.07-28.58a10.47,10.47,0,0,1,3.83,0c6.41,1.13,11.83,9.18,11.83,16.91,0,3.69-1.23,6.65-3.47,8.55a9.49,9.49,0,0,1-7.95,2C264.38,52.47,259,44.43,259,36.69c0-3.69,1.24-6.65,3.47-8.55A9,9,0,0,1,266.55,26.18Z"/><path class="cls-55" d="M294.57,54.83v1.44a34.44,34.44,0,0,1,4.88,5.49V60.2A34.28,34.28,0,0,0,294.57,54.83Z"/><path class="cls-55" d="M294.57,58.94v1.44a33.73,33.73,0,0,1,4.88,5.47V64.31A33,33,0,0,0,294.57,58.94Z"/><path class="cls-55" d="M265.11,42.25a5.85,5.85,0,0,0,4.23,5.55v3.31l2,.34V48.17a7.33,7.33,0,0,0,4.93-1.57c-.44-1.15-.67-1.72-1.11-2.85a6.18,6.18,0,0,1-4.76,1.48C268.87,45,268,44.16,268,43c0-3.38,7.4-.08,7.4-5.83a5.6,5.6,0,0,0-4.1-5.34V28.74l-2-.37v3.12a7.7,7.7,0,0,0-4.09.86c.43,1.17.64,1.75,1.06,2.91a7.18,7.18,0,0,1,4.14-.8c1.24.22,2,.9,2,1.89C272.49,39.63,265.1,36.46,265.11,42.25Z"/><path class="cls-58" d="M241.38,15a8.87,8.87,0,0,0,1.93,4.54V21l.89,1V20.58a3.26,3.26,0,0,0,2.25,1.15l-.5-1.64a3.15,3.15,0,0,1-2.18-1.23,3.85,3.85,0,0,1-1.08-2.07c0-1.51,3.38,3,3.38.47a7.1,7.1,0,0,0-1.87-4V11.9c-.35-.39-.53-.6-.89-1v1.39a9.28,9.28,0,0,0-1.87-1.61c.2.74.29,1.11.49,1.84a9.16,9.16,0,0,1,1.89,1.59,3.21,3.21,0,0,1,.93,1.71C244.75,17.26,241.38,12.42,241.38,15Z"/><path class="cls-59" d="M286.26,25.8V64.44c1.37.65,2.72,1.38,4.06,2.17V28A42.68,42.68,0,0,0,286.26,25.8Z"/><path class="cls-60" d="M58,116.84a12.78,12.78,0,0,0,11.54,0c3.19-1.85,3.21-4.83,0-6.67a12.73,12.73,0,0,0-11.53,0C54.84,112,54.82,115,58,116.84Z"/><path class="cls-61" d="M57.26,50.38h0c2.48-1,5.7-.67,9.24,1.37,7.81,4.51,14.14,15.43,14.14,24.39,0,12.2-14.14,26.07-14.14,26.07l-4.88,2.53L52.3,53Z"/><path class="cls-61" d="M61.63,54.29c-7.81-4.51-14.14-.9-14.14,8.06,0,12.2,14.14,42.4,14.14,42.4S75.77,90.87,75.77,78.68C75.77,69.72,69.44,58.8,61.63,54.29Z"/><path class="cls-62" d="M69.82,75.24c0,5.19-3.66,7.28-8.19,4.67S53.44,71,53.44,65.78s3.67-7.28,8.19-4.67S69.82,70.05,69.82,75.24Z"/><path class="cls-63" d="M75.35,79.13c0-8.87-6.25-19.66-14-24.12C54.64,51.13,49,53.34,47.7,59.85c1.09-7.08,6.9-9.62,13.93-5.56,7.81,4.51,14.14,15.43,14.14,24.39,0,12.19-14.14,26.07-14.14,26.07l0-.08C63.33,102.91,75.35,90.32,75.35,79.13Z"/><path class="cls-64" d="M28.61,62.35l0,0a1.79,1.79,0,0,1,1.78,0l5.39,3.12c.47-4,2.18-7,5-8.61a10.32,10.32,0,0,1,8.27-.64l-.67-7.45,1.93-1.22a2.27,2.27,0,0,1,.45-.28h0a2,2,0,0,1,.69-.14,1.94,1.94,0,0,1,1.94,1.94v9.16c8.26,5.1,14.65,16.3,14.68,25.88l6.24,3.6a1.79,1.79,0,0,1,.13,3h0l-2.28,1.43L67.47,88.9A10,10,0,0,1,63,95a9.29,9.29,0,0,1-4.69,1.22,13.35,13.35,0,0,1-4.88-1v8.93a1.89,1.89,0,0,1-.86,1.56v0l-2.27,1.43-.15-1.63a1.93,1.93,0,0,1-.61-1.4V98.49L49,92.77A34,34,0,0,1,35.83,70.2l-4.71-3.28-2.5-1.45a1.7,1.7,0,0,1-.69-.77l-1.42-1Zm16.1,8.26a1.8,1.8,0,0,1,.66,2.46,1.87,1.87,0,0,1-.55.57h0L42.75,75l-1.24-2,.08,0-1.51-.88c.05.23.07.46.13.69s0,.2.08.31c.19.74.41,1.48.67,2.22,0,.1.07.19.1.29q.44,1.22,1,2.4c0,.09.08.18.13.27A31.48,31.48,0,0,0,44.9,83l.09.13a29.82,29.82,0,0,0,3.57,4.21c.32.31.65.61,1,.9V88L48.3,85.39,50.45,84l0,0a1.9,1.9,0,0,1,3,1.62v5.3a10.43,10.43,0,0,0,5,1.41,5.8,5.8,0,0,0,1-.08,5.21,5.21,0,0,0,1.71-.61,4.66,4.66,0,0,0,1-.76l.19-.19a5.93,5.93,0,0,0,.79-1h0a7.78,7.78,0,0,0,.6-1.34l.06-.17A10.67,10.67,0,0,0,64,86.52c0-.18,0-.37.07-.55l-5.86-3.39-.06,0-.46.25L56,80.91l2.35-1.55,0,0a1.77,1.77,0,0,1,1.63,0l4,2.32c-.06-.47-.13-1-.22-1.43a.19.19,0,0,1,0-.08h0a29.3,29.3,0,0,0-2.9-8h0a31.91,31.91,0,0,0-1.75-2.93h0A28.38,28.38,0,0,0,53.42,63v4.6a1.94,1.94,0,0,1-1.07,1.71h0l-2,1.28L49,68.75l.69-.38a2,2,0,0,1-.19-.81v-7l-.07,0a10.79,10.79,0,0,0-2.73-.85,6.82,6.82,0,0,0-1.25-.11,5.51,5.51,0,0,0-1.84.33,4.88,4.88,0,0,0-.92.36c-2,1.18-3.16,3.81-3.17,7.41Z"/><path class="cls-65" d="M56.37,97.47a9.22,9.22,0,0,0,4.69-1.22c3.3-1.9,5.12-5.75,5.12-10.83,0-9.81-6.7-21.37-15.25-26.3-4.46-2.58-8.74-2.94-12.07-1s-5.12,5.75-5.12,10.83c0,9.81,6.7,21.36,15.25,26.3A15,15,0,0,0,56.37,97.47ZM43.56,60.77A11.07,11.07,0,0,1,49,62.48c7.34,4.23,13.3,14.53,13.3,22.94,0,3.63-1.12,6.29-3.17,7.47s-5,.84-8.19-1c-7.34-4.24-13.31-14.53-13.31-22.94,0-3.64,1.13-6.29,3.18-7.47A5.42,5.42,0,0,1,43.56,60.77Z"/><path class="cls-65" d="M49.55,70.74h0a1.94,1.94,0,0,0,1.94-1.94V50.31a1.94,1.94,0,0,0-1.94-1.94h0a1.94,1.94,0,0,0-1.94,1.94V68.8A1.94,1.94,0,0,0,49.55,70.74Z"/><path class="cls-65" d="M49.55,107.3h0a1.94,1.94,0,0,0,1.94-1.94V86.87a1.94,1.94,0,0,0-1.94-1.94h0a1.94,1.94,0,0,0-1.94,1.94v18.49A1.94,1.94,0,0,0,49.55,107.3Z"/><path class="cls-65" d="M43.44,74.31h0a1.8,1.8,0,0,0-.66-2.46L28.49,63.6a1.79,1.79,0,0,0-2.46.65h0a1.79,1.79,0,0,0,.65,2.46L41,75A1.81,1.81,0,0,0,43.44,74.31Z"/><path class="cls-65" d="M73.07,91.42h0A1.8,1.8,0,0,0,72.41,89L58.12,80.7a1.81,1.81,0,0,0-2.46.66h0a1.79,1.79,0,0,0,.66,2.46l14.29,8.26A1.81,1.81,0,0,0,73.07,91.42Z"/><path class="cls-60" d="M261.1,97.9a12.72,12.72,0,0,0,11.54,0c3.19-1.84,3.21-4.82,0-6.66a12.76,12.76,0,0,0-11.53,0C257.94,93.09,257.92,96.07,261.1,97.9Z"/><ellipse class="cls-16" cx="280.69" cy="213.34" rx="27.97" ry="16.15" transform="translate(-1.15 1.52) rotate(-0.31)"/><circle class="cls-66" cx="277.91" cy="195.17" r="30.62"/><circle class="cls-67" cx="277.91" cy="195.17" r="28.01" transform="translate(-8.75 377.24) rotate(-67.5)"/><path class="cls-68" d="M303.81,201.58Z"/><path class="cls-69" d="M285.82,168.29a28.18,28.18,0,0,0-7.16-1.12l-.1.14.81.63v.65l.19.57.8.49.72.64.48,1.12.72,1.06.45,1.41.16.28.47,0,.16-.16.14-.29.35,0,.24.15.45.12.21-.51.16-.4-.05-.35v-.42l.24-.51.16-.5v-.62l.28-.48s.05.48.05-.75S286.55,169.41,285.82,168.29Zm-35.29,28.25.7.44,1-.37-.16-.58-.08-.86.25-.15.2.3s.37.75.37.17v-.58l-.17-.36L253,194l.39-.79,0-.82-.2-.07-.1-.37-.27.37-.26-.3-.51,1.67-.47.52-.35.45-.32.37-.42.39-.29-.4-.26.32v-.13a28,28,0,0,1,13.24-23.8l.41.27.26.57.32.16.37.3.39-.37s-.4-.25.1-.18l.5.07,1.1.37.12-.07,0-.62.42-.06.48.32.26.1-.09-.23-.13-.09v-.19h.2l.15,0,.08-.09-.08-.12.12-.21,0-.22L268,171l-.23-.26-.06-.2s.07,0,0-.18l0-.19-.15-.09-.09-.2v-.19l.08-.08.16,0,.11.19.17.06.13,0,.06-.07.15.06,0,.09.15.07.13.07s0,0,0,.23l0,.19.12.26,0,.26-.07.22.09.1.07.21s-.09.15-.16.06l-.08-.09-.11.06.1.15h.08l0,.15-.16,0,.07.14s0-.14.14,0l.11.16.11-.05,0-.08.05-.13s0-.06.12,0l.09.07h.11l.09,0,0,.1.16,0,.18,0s-.08,0,0-.06L270,172l.21.05.11.12,0,.05.2.09,0,.05v.12l.07.17.19.17.12.16.09.09.16.05.12,0,.28.16.15.14.16,0,.16,0,.14.17-.1.09.07.17.09.09.24.17.11,0h.18l.08,0,.13.11v.21h.15l.09-.06.11-.06h.15l0-.08,0,0-.05-.06v-.09l.08,0,.11,0,.07-.06,0-.08.06-.06v.06l0,.09,0,.09,0,.15v.09l-.06,0,0,.08,0,.1v.06l0,0v.06l.06.06.08,0,.19-.07.13,0h0l0-.08,0-.05.12-.08h.21l.08,0h.15l.14,0h.08l.12,0,0,.06,0,.1s0,0-.05.05l-.06,0,.07.06,0,.08,0,0,.06.14-.08,0h-.11l-.07,0-.05,0h-.08l-.13.1,0,.07-.07,0s0,0,0,.07l0,.09h-.08l-.12,0,0,.06.05,0v.08l-.06.06-.11.05,0,.06.06.06.05.1v.11l-.06.07-.06.06v.09l-.08,0-.1.07,0,.1.06.07.08.14-.06.12,0,.08.07.15,0,.18.1.09.07.23,0,.19.14.22.07.18.06.09h.12l.05,0s0,0,.1,0H275l.09-.05.06-.11.06,0,.05.06.08,0,.14-.13h.16l.12,0H276l.14-.05.07-.06.06,0,.15,0h.12l.15,0,.1-.08.12-.07.11,0h.14v-.08s-.12,0,0-.09l.16-.06h.13l.08.06.07.07v.07s0,0,.05,0h0l.13,0,.19.08.08.11,0,.16-.08,0v.1l-.05,0,.08.05.1.24.05.22v.33l0,.14.06.31.11.31.12.1.19.28.18.22.14.31-.08.31-.16,0-.1.06V181l.09.11.12.17v.2l.08.12v.13l.13.17,0,.07-.1-.07-.2-.07-.06,0-.07.06-.22,0-.07-.11-.12,0,0,0V182l-.25.12v.22l0,.14v.1l-.07.1,0,0v.13l-.09.07-.12,0-.11-.07-.12,0-.09-.11-.12-.12-.12,0-.14,0-.22,0h-.3l-.18.11-.15,0h-.18l-.06-.09,0-.06-.06-.18-.29-.13-.09,0-.06,0h-.1l0-.06s0,0,0-.08v-.08l0-.08-.09-.15-.08-.1-.09,0-.07,0-.14,0v-.1l-.14-.05v-.09l.11-.11.1-.07V181l-.1-.13-.17-.14-.43-.41,0-.16,0-.1-.11,0h-.22s0,.05-.13,0l-.1-.09-.19,0-.12-.05-.07-.1-.22-.07-.08-.08v-.19l0-.17,0-.12-.08-.19-.08-.1-.1-.1h-.1l-.05-.05s0,0-.05,0l-.08,0-.11.06-.18.09h-.15l-.13.1-.18.1-.14.06L271,179l-.06-.1-.1,0,0,.06s0,.07-.06.05h-.05l-.08,0-.08-.15-.07-.09-.11-.13,0-.09-.14,0h0l-.06-.07-.21,0-.06,0-.05.1-.06.07s.13,0,0,.14l-.12.08h-.08l-.07.09.06.19-.05.17-.09.07.05.12.05.07.07,0h.08l.06.09,0,.06-.08,0-.11,0-.09-.17-.05,0,0,.09-.09.1,0,.16,0,.1a.26.26,0,0,0-.16,0l-.08,0,0,.09-.06.09-.07.09h-.05v.22l-.13.12-.18.05v.1l-.14,0-.09.1-.11.23-.1.08-.13.06.1.14-.08,0h-.12l-.08.07v.18l-.11.09,0,.11-.16.05-.08,0,0,.19,0,.25.07.13-.06.16,0,.1.07,0,0,.2.09,0h.14l.09.08.14,0,.1-.05.17.09s0,0,.17,0l.2-.07s-.11-.08.07-.14l.19-.06.06,0s-.05-.15.1,0l.14.11,0,.21v.17l-.23.07-.13.16-.15.13-.14.14-.08.07-.09.2-.14.07-.16,0,0-.16-.13-.18.08-.16,0-.18-.1-.16-.09-.1-.07.08v.08l-.09.05-.1,0,0-.12,0-.11-.11-.07-.06,0-.07,0,0-.08s.13,0,0-.17L267,183l-.08,0,0,.06,0,0-.08-.08,0-.13-.11-.18,0-.11.12,0,.15-.1,0-.13,0-.09-.22-.29-.05-.06h-.1l0,.08,0,.07-.15,0v.05l-.07,0,0,0,0,.18,0,.18-.12.06-.09-.12,0-.2.05-.21.17-.32.24-.15.05-.15.19-.07.19-.07.1-.16V181l-.15,0,0-.08,0-.16.11-.08h.22l.08,0h.11l.06-.07.32-.56,0-.25.07-.18,0-.15.16-.26.2-.08.1-.18.07-.1,0-.18v-.16h-.15l0,0,0-.18.07,0v-.1l0-.07h-.18l-.1-.14h-.06l-.08,0-.05.05,0,.11s.17,0,0,.11l-.13.06-.05.05,0,.16.07.08-.1.14h-.07l-.06-.11,0,.1v.08l0,.07-.09,0h-.06l0-.2-.12.2-.07.14.08.08.06.09v.09l0,.07-.22.1-.12.15,0,.1,0,.11-.05.06v.09h-.12s-.11-.1-.08,0,0,.09,0,.14l0,.05-.06,0-.19.05-.08-.05-.2.06s-.09,0-.13.12l0,.12-.2.23s-.12-.09-.14.11v.2l0,.12-.13.05h-.05s.08.18.14.21l.06,0,0,.13,0,.29.06.14.05.21-.09.06,0,.1h-.13l0,.12v.05h.11v-.06l.07.09s.05,0,0,.1,0,.09,0,.09l-.11.11-.18,0,0,.11-.15.16v.07s.15-.12.07.13l-.08.24,0,.11-.18.06,0-.08-.21.08-.19.09h-.13l-.05.08h-.13l-.08,0v.31l-.14.08h-.09l-.11.2-.14,0,.07-.17.08-.1v-.12l0,0-.07.17-.18.08-.08-.11-.05,0,0-.15.21,0,0,0,0-.18.08-.1.08-.11v-.09l.11-.08.12-.44.11-.1,0-.18.05-.19,0-.14h0s0,0-.05,0l0,0-.13.15,0,.06h-.16l-.08-.07-.06-.06-.08-.12-.12-.05,0-.12-.13-.06h-.17l-.07.11-.1.05-.1.09-.2,0,0,.11s.22,0,0,.09l-.18.13h-.11v0l0,.12,0,0,.08.06.06-.07.11,0,0,.08v.29l0,.11.07,0,.05,0,.11.09-.05.06-.05.06-.13.06h-.08l-.05,0-.08-.07.06-.13-.1-.14h-.08l-.07,0,.06.16.07.14-.08.11.1.07.1.05.1-.06.08,0h.08l.06-.06.07.09,0,.11s.06.15,0,.17l-.07,0h-.07l0-.11-.07,0,0,.1v.17s0,.08-.07.06l-.06,0h-.12l-.14.12.06.1.06,0,.16-.07.08,0,0,.13v.1l-.07.06-.1-.05,0,0V185l-.11,0,.09.06s0,0,0,.09l.06.05.09,0,0,.12.09.13h-.17l-.07-.12-.06-.05-.07-.14-.18,0s-.22,0-.14,0l.08.07h.1l.07.1,0,.08-.15,0,0,.14s0-.09.08,0,.11.11.11.11v.17l-.09.06-.19-.09,0-.07-.08-.13v-.19l-.14-.05v.14l-.11.08,0,0-.1-.07v.14l.08.11-.05.16-.16.1-.13.05-.09,0h-.13l-.08-.14-.09-.12,0-.21-.13-.11-.14,0-.08.11-.34.17v.15l-.13.2-.35.16-.14-.06-.1.06-.18.07-.08-.22-.08-.09-.16-.13-.08.18-.15.06-.15,0-.06-.1-.11-.13-.07,0-.11.05,0,.12.15,0,0,.16v.11l.13.22,0,.18-.16.31.15.12,0,.11-.06.12.14.12.22.45.05.26.15.2.35,1,.21.17H260s0-.11.32,0l.35.08.21-.44.21-.07.17-.12.32,0,.17.14.27.1.15.15.2,0,.12-.21.25-.05.58-.42.77-.16.33-.53.64-.24.34-.58.6.14.54.09,0,.63.07.59.42.09.33-.39.28-.46.59,0,.37-.56-.07-.47.48-.21.48-.07.84-.4.37-.72-.34-.59-.23-.25.1-.56-.39-.69.33-.17.23.14.08-.29s-.19-.25.46,0l.64.21.53-.22.76-.22,1.55.09,1.09.3.57.29.65-.17.42-.37.28.19.22-.28h.31l.24.47.35.45.74.39.79.51.34.94-.1.59.54.73.75.38.88.31.38.59.68.31.29,1,.74.6.45,1,.51.61-.07.48-.44.15.26.5.1.37,0,.69.29.83.24.48.09.33.49.66-.25.78.25.57.11.56-.25.47-.28-.08-.15.55-.31.76-.18.09.1,1.18-.63,1.06-.6.82-.55,1-.6.58-.62-.16-.27-.3-1.06.07-.44.51-.52.16-.23-.36-.24.15-.61-.43-.52,0-1.23-.15-.59.19-.1.79,0,.6-.42.19L276,206l-.76,0-.46.41-.09.72.16,1.05.27.31,0,.5.37.46.2.92-.86,2.45-.37.71.45.42-.5,1.31.27.68-.31,1.36.33,1,.49.2.6.55.16,1.12.31,1,.13.82-.2.76-.06.37a27.87,27.87,0,0,1-14.35-5l0-.87-.35-.22.27-.6-.68-1.22-.5-1-.48-.32-.39-.33-.31-.77-1-.63-1-.77-1-.77-.79-1-.49-.66-.59-1.18-.51-.79-.2-.56-.35-.21-.17-.34.26-.13-.17-.58-.14-.09.37-.1.1-.15.11.3.22.1.32.07h.24l.45-.14.54,0,.32.4.45-.36.31.24.51-.14v-.41l.15-.22h.31l-.09-.25-.21-.07-.16-.15.06-.19-.08-.44.27-.12.25-.23,0-.31.21-.36.05-.27.28-.25.33-.17.27-.45,0-.76.16-.25-.12-.62.31-.24.26.06.49-2.52,0-2.55.8-1.7.35-1.89-.4-.2-.86,1.24-.29.65a8.63,8.63,0,0,0-.57,2.22l-.19,1.4-.68,2-1.2,2.08.4,1.64-.4,1.71-1.59-.19-1.83-.59-.84-.43v-.65l-1.27.07-.57-.37-.2-.24a28.9,28.9,0,0,1-.67-5.63Zm40.84-25.94v.1l-.48.25-.45.1s-.18.32-.46-.26l-.28-.58-.33-.32-.51-.17.31.95-.29.43-.27.36.58.59-.23.46-.42.09-.07.28-.59.2-.1.25.15.32,0,.26-.46.16.35.6-.1.38a.79.79,0,0,1,.81.17l.33.36.28,0,.76.43.19.25.86,0,.09-.29,1-.09.49.29.35.3,1,.16.23.44.28.35.67.51h-.67l-.61-.51-.41-.4-.4-.21-.37-.09-.3-.05-.58,0-.29.08.38.53.58.37,0,.42-.36.46-.53.26-.14-.1-.45-.29-.17-.56h-.51s.52.36.34.56l-.17.2.16.43.52.12.16.3.71.11.47-.07.19.34.52.36h.45l0-.35-.61-.28-.13-.33s0-.41.33-.1.26.23.26.23l.4.18.61.2.37-.06s.12-.16.47.37l.35.54-.07.25.31.07-.24.32-.36-.13-.05.31.17.15.3.08.2,0,.22-.13.1,0,.59.06.14.28-.34.2.29.16.42,0,0,.56.48.23.09.28.19-.32.18-.14-.08.32-.2.26.17.28.24.29.24.3s.17.08,0-.24-.24-.12-.13-.32l.1-.21s-.1-.94.09,0c.09.48.21.47.26.44a.64.64,0,0,0-.08.14l-.1.19c-.06,0-.15,0-.16.31l0,.42.33.16v.3l.18.21.18-.08.05.23.2.21.21,0,.19.17.12.26.29,0,.16.14.23.39.64.38s.22-.24.34.34a2.79,2.79,0,0,0,.13.53l.16.3-.09.46-.07.47.11.25-.18.2.07.32,0,.48-.18.22.18.37.25.28,0,.31.23.09.2-.17.12-.39.18-.21v-.27l0-.24a.44.44,0,0,0,.14-.39l-.05-.22-.16-.47v-.43l.18,0,.28-.34.12-.21.18.13,0,.14,0,.18.2,0,.15-.29.06-.2.31-.11,0,.11.25-.07.18.12.2-.07-.08-.29s.21-.14.21,0v.15h.08A28.08,28.08,0,0,0,291.37,170.6Zm-2.27,50.25a28.07,28.07,0,0,0,15.54-17.3v-.05l-.07-.08-.24-.1,0-.12.1-.09V203l0,0-.1,0-.08-.07,0-.18,0-.18-.14-.08-.17-.08-.13-.08,0-.12c0-.12,0-.15,0-.15l-.28-.32.07,0,.11.09.11-.06.05,0s0,0,0-.07-.05.07,0-.11,0-.15,0-.15l-.1.05-.08,0v-.17l-.14-.08.05-.21a1.63,1.63,0,0,1,.07-.25l0-.17-.05-.09h-.09v-.16l.1-.1,0-.14-.09-.11,0-.27.13-.25.29-.36v-.51l.11-.06.06-.15.16,0,.14,0,.12.41h.24l.08.06-.1.11.05.05s-.13.16-.13.16l-.05.12,0,.07.07.13.09,0,.27,0,.09-.07c.09-.08,0-.19,0-.19h.18v.16l.11,0,.1-.06v-.12l0-.09-.06,0-.06-.12,0-.12.12,0,.11-.06.08-.13h0c0-.28.07-.55.09-.83l-.09.09c-.11.1,0,.1,0,.1l0,.11h-.13l-.12,0-.11,0,0,.14h-.15l-.19-.14-.06-.12-.2,0-.08-.06,0-.12c0-.11-.05-.09-.05-.09l-.12,0h-.17l0,.1-.05,0-.17,0-.27.08-.12.23-.21.28-.07.22,0,.16c0,.16-.11.08-.11.08l-.11-.1,0-.16.1-.11,0-.1,0-.08-.19-.08-.06-.23-.21-.13-.14,0v-.09l0-.2-.07-.49-.17-.14-.14-.16h-.09l-.15.1-.06,0,0-.2-.16-.08-.13.1h-.25l-.15-.18-.08-.14-.21,0,0-.15-.1-.27-.3.06-.14.22,0,.24.15.17.21,0,0,.2-.12.08-.07-.18-.11.18-.08-.19-.23,0-.13-.05,0-.12.09-.19v-.14l-.12-.15c-.11-.16-.14,0-.14,0l-.08.19c-.09.18.08.09.08.09l0,.15-.31.09-.46.18.12.27-.12.18-.47-.05-.24-.09-.48.42h-.25l-.22-.32.27-.32-.23-.19-.37-.06h-.28l-.47.25.47.35-.17.22h-.28l-.37,0-.27.36.15.21.21.35-.65.32-.46,1.06-.42.21-.81.38-.55.81.07,1.15.45,1.5v.84s0-.84-.52,1.08l-.32.49-.8.45.38.59.25.74-.25.72h-.78l-.12.74-.14,1-.21.35-.56.24.1,1.22-.38,2,.65,1.18-.36.12-.63.61.16.74.83.52-.37.45-.87.56-.6.6-.12,1.5A3.06,3.06,0,0,0,289.1,220.85Z"/><path class="cls-70" d="M260.11,180.81c1.3,1.68,4.72,1.19,7.66-1.08s4.26-5.46,3-7.14-4.73-1.19-7.66,1.08S258.82,179.14,260.11,180.81Z"/><path class="cls-71" d="M277.91,167.16a28,28,0,1,1-28,28A28,28,0,0,1,277.91,167.16Zm15.67,43.13c10.38-10.26,11.09-26.37,1.58-36s-25.63-9.1-36,1.16-11.09,26.38-1.58,36S283.2,220.55,293.58,210.29Z"/><path class="cls-61" d="M249.66,185.7a25.25,25.25,0,0,0-8,2.9,9.67,9.67,0,0,0-3.48,3.31,7,7,0,0,0-.57,5.5c1.17,3.48,3.41,5.73,5.57,7.78,1.1,1,2.24,1.95,3.4,2.82.58.44,1.16.89,1.75,1.29l.89.62.44.31c.15.11.36.08.14.91l4.52-8.91c-.52.67-.6.48-.75.43l-.46-.17-.9-.33c-.62-.21-1.19-.46-1.78-.7a35.62,35.62,0,0,1-3.42-1.57c-2.14-1.13-4.26-2.51-5.21-4.09a3,3,0,0,1-.4-2.38,6.58,6.58,0,0,1,1.83-2.72,21.49,21.49,0,0,1,6.66-4Z"/><polygon class="cls-17" points="258.41 218.75 248.09 212.78 248.09 200.94 258.41 206.9 258.41 218.75"/><polygon class="cls-18" points="248.09 200.94 258.41 206.9 252.84 203.92 248.09 200.94"/><polygon class="cls-15" points="258.41 218.75 268.74 212.78 268.74 200.94 258.41 206.9 258.41 218.75"/><polygon class="cls-21" points="258.41 206.9 268.74 200.94 258.41 194.98 248.09 200.94 258.41 206.9"/><polygon class="cls-72" points="253.76 208.89 252.1 207.93 252.1 203.25 253.76 204.21 253.76 208.89"/><polygon class="cls-73" points="253.76 204.21 264.08 198.25 262.43 197.29 252.1 203.25 253.76 204.21"/><polygon class="cls-18" points="268.74 200.94 258.41 206.9 263.99 203.92 268.74 200.94"/><polygon class="cls-74" points="262.89 208.99 264.55 208.03 264.55 203.35 262.89 204.31 262.89 208.99"/><polygon class="cls-75" points="262.89 204.31 252.57 198.35 254.23 197.39 264.55 203.35 262.89 204.31"/><polygon class="cls-23" points="263.66 203.87 253.34 197.91 253.45 197.84 263.77 203.8 263.66 203.87"/><polygon class="cls-15" points="262.89 204.31 262.89 204.5 263.9 203.96 264.55 203.56 264.55 203.35 262.89 204.31"/><polygon class="cls-15" points="252.84 203.92 253.76 204.41 253.76 204.21 252.1 203.25 252.1 203.45 252.84 203.92"/><path class="cls-61" d="M263,211.12a3.59,3.59,0,0,0,3,4.35,126.47,126.47,0,0,0,15.65,1.16,84.43,84.43,0,0,0,19.5-1.9,45.8,45.8,0,0,0,9.37-3.24,30.59,30.59,0,0,0,4.33-2.5,11.71,11.71,0,0,0,3.76-3.81,6.33,6.33,0,0,0,.79-2.84,6.23,6.23,0,0,0-.59-2.8,12.3,12.3,0,0,0-3.19-4,33.72,33.72,0,0,0-8.28-5.11l-.45,1a32.36,32.36,0,0,1,7.48,5.47,10.24,10.24,0,0,1,2.4,3.56,3.72,3.72,0,0,1-.38,3.51c-1.45,2.07-4.47,3.44-7.21,4.57a41.39,41.39,0,0,1-8.81,2.3,79.09,79.09,0,0,1-18.46.36,118.26,118.26,0,0,1-15.54-2.43,2.75,2.75,0,0,0-3.3,2Z"/></g></g></g></svg>